<?xml version="1.0" encoding="UTF-8" standalone="no"?><svg xmlns="http://www.w3.org/2000/svg" xmlns:xlink="http://www.w3.org/1999/xlink"  height="453.4" preserveAspectRatio="xMidYMid meet" version="1" viewBox="-0.6 -0.2 500.6 453.4" width="500.6" zoomAndPan="magnify"><g><g id="change1_2"><path d="M273.6,4.2c2.5-2.4,5.8-4.4,9.4-4.2c3.4-0.2,6.5,1.6,8.7,3.9c3.3,3.4,5.2,7.9,6.5,12.4c6.3-1.1,13-2.2,19.3-0.3 c3.7,1.1,6.6,4.3,7,8.2c0.4,4.2,0.2,9.1-2.8,12.4c-3.3,3.9-8.2,5.7-13,7.1c-10.3,2.6-20.9,3.3-31.4,4c-6.4-7.6-10.2-17.4-10.2-27.3 C267,14.4,269.2,8.4,273.6,4.2z"/></g><g id="change1_3"><path d="M210.3,82.1c2.6-3.4,7.1-4.8,11.3-4.5c4.1,0.3,8.4,1.3,11.3,4.4c3.6,3.8,4.7,9.2,5.2,14.2c0.8,9.9-0.8,19.8-2.9,29.4 c-0.2,0.5-0.1,1.5-0.9,1.6c-9.5,2.1-19.3,3.6-29.1,2.6c-4.6-0.6-9.4-1.7-13.1-4.7c-3.9-3.3-5.8-8.5-5.3-13.6c0.2-4.2,2-8.4,5.4-11 c4.2-3.3,9.7-4.1,14.9-4.3C206.8,91.4,207.2,86.1,210.3,82.1z"/></g><g id="change1_4"><path d="M328.8,96.5c4-1.1,8,0.9,10.9,3.5c1.8,1.4,3.1,3.3,4.8,4.8c3.8-0.5,7.8-1.2,11.6,0c2.4,0.7,4.5,2.4,5.4,4.8 c2.1,5.2,0.7,11.4-3.1,15.4c-3.1,3.3-7.7,4.9-12.1,5.5c-4.8,0.6-9.8,0.4-14.6-0.4c-7.4-5.3-13-14.5-11.3-23.8 C321.2,101.8,324.4,97.8,328.8,96.5z"/></g><g id="change1_5"><path d="M267.8,173.3c6.5-1.6,13.4,0.6,18.9,4.2c1.9,1.2,3.6,2.7,5.4,4c7.3-0.5,15-0.6,21.8,2.4c3.9,1.7,7.3,4.8,9,8.8 c2.1,5.1,1.9,10.9,0.7,16.1c-2.6,6-7.5,10.9-13.1,14.3c-7.2,4.3-15.4,6.6-23.7,8c-7.5,1.2-15,1.7-22.6,1.7c-1.2,0-2.5,0.2-3.7-0.2 c-4.1-8.5-7.1-17.5-8.3-26.9c-0.9-7.2-0.6-14.8,2.6-21.4C257.4,179,262,174.6,267.8,173.3z"/></g><g id="change1_1"><path d="M266.1,245.1c9.8,4.1,19.5,8.4,29.2,12.6c1.3,0.5,2.6,1.3,4,1.5c8.5-2.7,17.4-4.7,26.4-4.9c9.5-0.3,19.2,1.5,27.7,5.8 c7.4,3.7,13.8,9.1,19.1,15.4c4.6,5.6,8.8,11.7,11.3,18.6c1.7,4.6,2.7,9.4,3.1,14.3c1.7,14.9,5.9,30,14.4,42.5 c5.7,8.4,13.5,15.4,22.5,20.2c8.4,4.5,17.7,7.2,27.2,8.6c-9,12.9-22.1,22.5-36.2,29.1c-15.9,7.3-33.3,11.1-50.7,12.9 c3.1,10.1,7.1,19.9,10.1,30.1c-5.5-9.5-11-19.1-16.4-28.8c-2.6,0.2-5.2,0.1-7.7-0.5c0.3,9.5,0.6,18.9,1,28.4 c-2.7-9.5-4.7-19.1-7.2-28.7c-4.3-1.2-8.7-1.9-12.9-3.4c-13-4.1-25.1-10.8-35.1-20.1c-10.2-9.3-18-21-23.4-33.7 c-7.6-17.3-11.1-36.5-9-55.4c0.9-8.1,2.9-16.1,6.3-23.6c0.4-0.7,0.1-1.5-0.1-2.2c-2.7-10.8-5.6-21.5-8.2-32.3 c6.8,6.2,13.5,12.4,20.3,18.6c0.4,0.4,0.9,0.7,1.3,1C277.4,262.6,271.6,253.9,266.1,245.1z M299,289.2c0.1,5,2.4,9.7,5.4,13.7 c2.2,2.8,5.5,4.4,8.8,5.5c7.5,2.4,15.7,2.6,23.4,1.2c1.2-0.2,2.5-0.4,3.6-1c-5-1.4-9.9-3.1-14.5-5.5c-6.2-3.2-12-7.9-14.8-14.4 c-2.4-5.3-2.4-11.3-1.1-16.8C303.5,275.1,298.8,281.9,299,289.2z M333.9,330c-3.6,1-7.3,2.6-9.7,5.7c-1.8,2.2-2.3,5.1-2.9,7.7 c-2,8.6-1.9,18,1.9,26.2c3.5,7.6,9.9,13.5,17.2,17.5c2.7,1.4,5.4,3,8.5,3.4c14.3,3.1,29.7,3.7,43.4-2.2c2.1-1,4.4-1.8,6.2-3.4 c-6.2-1.7-11.8-5.1-16.8-8.9c-8.9-7-16.5-15.7-21.8-25.8c-3.2-6.2-5.7-13.4-4.3-20.5C348.3,328.6,340.9,328.1,333.9,330z"/></g><g id="change1_7"><path d="M218.7,254.6c6.1-2.6,12.1-5.5,18.3-7.9c-5.7,8.7-12,17.1-17.8,25.8c7-6,13.6-12.7,20.7-18.6c-1.8,11.3-5.2,22.4-9.9,32.9 c4.9,6.6,7.5,14.5,8.6,22.5c1.3,9.9,0.7,19.9-1,29.7c-1.9,10.9-4.6,21.7-9.4,31.7c-6.7,14.3-17.5,26.4-30.1,35.7 c-11.7,8.9-25.2,15.8-39.8,18.2c-1.1-0.1-1.1,1.2-1.3,2c-1.6,8.4-3.5,16.7-4.9,25.1c-0.1,0-0.3,0-0.4-0.1 c0.1-8.8-0.5-17.7-0.5-26.5c-2.2,0.8-4.7,0.9-7,0.1c-5.4,9.4-10.9,18.7-16.3,28h-0.1c3-9.6,5.9-19.2,8.8-28.8 c-13.3-1.5-26.5-4.3-39-9.2c-15.1-5.8-29.1-14.7-40.8-25.9c-3-2.7-5.5-5.8-8.4-8.5c-16.2-1.9-32.3-4.9-48-9.6 c-1-0.1-0.4-1.4-0.4-2.1c1.5-10.9,2.9-21.8,4.5-32.6c5.4,1.9,10.2,5.1,14.6,8.8c11.6,10.1,20.9,22.6,29.5,35.3 c12.6-1,25.2-4.2,35.8-11.3c11.7-7.7,20-19.8,24.8-32.8c3.5-9.4,5-19.5,6.2-29.4c1.5-11.5,7.2-22,14.9-30.5c5-5.7,11-10.5,17.7-14 c8.7-4.5,18.5-6.7,28.2-7c9.1-0.3,18.3,1.4,26.3,5.9C208.1,259.3,213.4,257,218.7,254.6z M185.7,273.9c-2.9,1-5.3,3.5-5.9,6.5 c-0.9,4.2,0.3,8.6,2.2,12.4c2.6,5.2,6.9,9.9,12.4,11.9c-2.5-6.7-5.1-13.8-4.2-21.1c0.5-4.4,3-8.5,6.4-11.2 C192.9,272.5,189.2,272.6,185.7,273.9z M154.9,344.4c-4.6,0.6-9.4,1.7-13.1,4.7c-4.6,3.5-7,9.1-8,14.6c-0.4,1.9-0.3,4-1.4,5.7 c-0.8,1.4-2.2,2.3-3.5,3.2c-6.8,4.6-14.6,7.3-22.5,9.1c3.2,1.6,7.1,1.8,10.3,3.3c-6.7,1.2-13.4,2.1-20.1,3.4 c3.4,3.4,7.4,6.1,11.6,8.4c8.5,4.7,18.3,7,27.9,6.2c10.3-0.7,20.1-4.5,28.9-9.8c4.6-2.7,9-6.1,12-10.6c4.4-6.4,6.1-14.8,4.2-22.4 c-1.1-5-4.4-9.3-8.4-12.3C167.7,344.3,161,343.5,154.9,344.4z"/></g><g id="change1_6"><path d="M451.1,379.8c9.5-19.1,25.1-35,43.9-45c0.7,11.8,2.3,23.6,5,35.1C483.4,371.2,467.2,375.5,451.1,379.8z"/></g></g></svg>