<svg width="182" height="97" viewBox="0 0 182 97" fill="none" xmlns="http://www.w3.org/2000/svg">
<path d="M100.861 57.1032C99.7583 57.1032 98.8647 57.9968 98.8647 59.0993C98.8647 70.0035 89.4576 78.8745 77.8947 78.8745C66.3318 78.8745 56.9247 70.0035 56.9247 59.0993V56.924C59.249 56.4819 61.4728 55.2669 63.2408 53.2722L72.7057 42.5909C73.0275 42.0297 73.2159 41.3557 73.2159 40.6297C73.2159 38.1371 71.3303 37.0999 70.1902 37.0999H56.9247V16.9961C56.9247 15.8936 56.0311 15 54.9286 15C53.8261 15 52.9325 15.8936 52.9325 16.9961V37.0999H39.6557C37.9845 37.0999 36.6297 38.6801 36.6297 40.6297C36.6297 41.3557 36.8181 42.0297 37.1402 42.5909L46.6051 53.2722C48.3755 55.2703 50.6041 56.4856 52.9325 56.9257V59.0993C52.9325 70.0035 43.5251 78.8745 31.9622 78.8745C20.3993 78.8745 10.9921 70.0035 10.9921 59.0993C10.9921 57.9968 10.0982 57.1032 8.99606 57.1032C7.89356 57.1032 7 57.9968 7 59.0993C7 72.2048 18.198 82.8666 31.9622 82.8666C42.2584 82.8666 51.1174 76.9 54.9286 68.4076C58.7398 76.9 67.5984 82.8666 77.8947 82.8666C91.6592 82.8666 102.857 72.2048 102.857 59.0993C102.857 57.9968 101.964 57.1032 100.861 57.1032Z" fill="black"/>
<path d="M121.812 57.1035C120.709 57.1035 119.815 57.9971 119.815 59.0996V80.8695C119.815 81.972 120.709 82.8655 121.812 82.8655C122.914 82.8655 123.808 81.972 123.808 80.8695V59.0996C123.808 57.9971 122.914 57.1035 121.812 57.1035Z" fill="black"/>
<path d="M173.584 57.1035C172.481 57.1035 171.588 57.9971 171.588 59.0996V80.8695C171.588 81.972 172.481 82.8655 173.584 82.8655C174.686 82.8655 175.58 81.972 175.58 80.8695V59.0996C175.58 57.9971 174.686 57.1035 173.584 57.1035Z" fill="black"/>
<path d="M156.607 57.1035H138.764C137.661 57.1035 136.768 57.9971 136.768 59.0996C136.768 60.2021 137.661 61.096 138.764 61.096H145.695V80.8695C145.695 81.972 146.589 82.8655 147.691 82.8655C148.793 82.8655 149.687 81.972 149.687 80.8695V61.096H156.607C157.709 61.096 158.603 60.2021 158.603 59.0996C158.603 57.9971 157.709 57.1035 156.607 57.1035Z" fill="black"/>
</svg>
