<svg width="125" height="151" viewBox="0 0 125 151" fill="none" xmlns="http://www.w3.org/2000/svg">
<path d="M0.00336187 45.7968L2.42825 44.4334V41.5265L4.75918 42.4332C4.83306 42.0399 4.73227 40.9498 5.22262 40.5197C5.58871 40.1864 6.71387 40.7198 7.52329 40.8531C7.44621 40.691 7.41265 40.5118 7.42587 40.333C7.49976 39.733 7.6509 39.143 7.76173 38.5496C8.33573 38.7107 8.89701 38.9135 9.44103 39.1563C10.054 39.5267 10.645 39.9318 11.211 40.3697C11.4394 39.253 10.7912 37.5528 12.5544 37.9062C14.1699 38.2395 13.1456 39.573 12.9911 40.5264C13.9684 40.133 14.8383 39.723 15.7451 39.4397C16.1549 39.313 16.7862 39.2663 17.0583 39.493C17.3303 39.7197 17.3941 40.333 17.3941 40.7797C17.3941 41.1331 17.1691 41.4865 16.9541 42.1132C18.0457 41.5665 19.1071 40.2397 19.8695 41.7032C20.2725 42.4732 19.8191 43.7033 19.5101 44.7201C19.8459 45.5468 21.9384 44.2367 21.6361 46.1835C21.5555 46.7036 20.5243 47.0769 19.9097 47.517C20.7259 48.7704 20.5982 50.5172 19.4596 51.9939C18.7006 52.994 19.2279 55.1775 20.427 55.2542C23.6781 55.4542 26.9862 56.921 30.2172 54.9675C31.0031 54.4908 31.4297 54.0508 31.2248 53.1607C30.6034 50.4738 30.2475 47.6903 29.2735 45.1368C28.1585 42.2165 28.1954 39.783 30.1635 37.2228C32.3264 34.4126 34.1938 31.3824 36.1519 28.4221C36.6191 27.7894 36.8726 27.0263 36.8762 26.2419C36.8799 25.4575 36.6333 24.692 36.172 24.0551C35.3256 22.765 34.3818 21.9616 32.7261 22.885C31.9368 23.3284 31.2718 23.5284 30.7109 22.185C30.15 20.8416 28.8637 19.8515 27.7252 18.518C28.6018 16.8912 27.527 15.1578 27.2684 13.301C26.8452 10.2807 27.4296 7.17045 29.5354 4.69359C33.4213 0.119905 39.6616 -1.17018 46.1806 1.08333C50.755 2.66345 54.4024 5.49035 57.3647 9.22064C63.4841 16.9212 66.9199 25.7586 68.7033 35.3427C70.4195 44.5634 72.5422 53.6974 77.0158 62.0648C82.7245 72.8971 91.597 81.7651 102.471 87.5067C103.829 88.2733 105.29 88.8457 106.81 89.2068C108.153 89.4935 109.634 89.2669 111.176 89.2669C108.684 102.751 100.351 113.215 90.5677 123.16C100.331 132.357 110.988 139.447 125 139.944C124.802 142.918 123.106 143.701 117.574 143.208C115.922 146.208 114.595 146.508 109.933 144.948C108.55 147.651 106.239 147.648 103.67 146.888C103.496 146.857 103.317 146.859 103.144 146.897C102.971 146.934 102.807 147.005 102.662 147.105C100.009 148.978 99.9046 148.998 96.8382 147.585C95.4477 149.358 93.7181 149.872 91.6122 148.715C91.4643 148.675 91.309 148.668 91.1583 148.697C91.0075 148.725 90.8653 148.787 90.7424 148.878C88.9993 150.175 87.2595 150.142 85.4291 148.878C83.7666 150.365 81.9731 150.465 80.0553 149.325C79.8931 149.24 79.7131 149.193 79.5295 149.188C79.3459 149.184 79.1638 149.221 78.9973 149.298C76.8949 150.908 74.863 150.615 72.8176 149.035C71.1215 151.145 69.1567 151.208 66.9501 150.065C66.7107 149.985 66.4562 149.96 66.2056 149.991C65.955 150.022 65.7147 150.109 65.5026 150.245C64.0315 151.245 62.6175 151.218 61.1095 150.362C60.7434 150.152 60.102 149.965 59.8199 150.135C57.5763 151.418 55.5477 151.065 53.556 149.412C51.8196 150.905 50.08 151.108 48.4175 149.142C46.5434 150.712 44.6827 150.385 42.7952 149.278C42.616 149.171 42.416 149.102 42.2083 149.076C42.0006 149.05 41.7898 149.068 41.5894 149.128C39.2384 150.312 37.1561 149.755 35.0972 148.021C33.2097 149.965 31.3121 149.458 29.5489 147.925C26.328 149.475 25.3708 149.325 22.9358 146.891C21.0919 148.431 19.1138 148.225 17.0953 147.188C23.4967 138.121 24.1482 127.433 25.7637 117.062C27.7083 104.511 28.4003 91.8304 29.1862 79.1627C29.5556 73.1956 30.4053 67.2585 31.03 61.308C31.1274 60.3813 31.1812 59.4546 31.2853 58.1445C29.784 58.6845 28.5648 59.1445 27.3356 59.5612C25.3204 60.2579 23.3892 61.5914 21.1423 60.778C20.1347 60.4113 19.2414 59.6412 18.348 58.9845C18.2542 58.8628 18.1929 58.7195 18.17 58.5679C18.1471 58.4163 18.1632 58.2614 18.217 58.1178C19.7686 56.451 18.1498 56.0276 17.1355 55.3876C16.8876 55.2666 16.629 55.1684 16.363 55.0942C16.9441 56.661 16.3059 57.201 14.9491 56.9077C15.2437 57.4788 15.5017 58.0678 15.7216 58.6711C15.7484 58.7578 15.1237 59.2079 15.023 59.1445C14.4492 58.7195 13.9092 58.2514 13.4075 57.7444L13.871 60.3313L15.3689 60.7513L14.4419 61.7247L14.5696 62.9881L13.1254 62.5581C13.2832 63.1848 12.9608 64.2249 14.4688 63.8682C14.6905 63.8115 15.0734 64.3949 15.1405 64.9116L16.5848 65.175L15.9768 66.4351C17.2296 68.1019 19.3892 69.6853 18.0222 72.4555C18.6369 69.5887 16.6049 68.3152 14.6334 67.0785L13.29 67.5252L13.4042 66.4284L12.3059 64.4283L11.4091 64.5316L11.5502 66.0417L9.64249 65.375L13.6426 70.072C13.5441 70.912 13.4925 71.7566 13.4881 72.6022C13.5587 74.7791 12.4369 76.3725 11.0867 77.9093C10.5963 78.4727 9.47124 78.8361 10.2639 80.0061C10.3948 80.1962 9.87092 80.8229 9.51491 80.8795L9.38388 82.213L8.13113 81.5996C6.78769 82.7264 5.57531 84.0631 7.10346 86.2666C5.45104 85.0832 5.49134 83.7298 7.10346 80.8762L5.55512 80.1928L8.07406 78.8594C10.6232 78.6227 13.1656 74.249 11.9868 71.5255L10.6938 72.1922C10.6938 71.7888 10.7274 71.3821 10.6938 70.9821C10.6938 70.8288 10.5326 70.6821 10.4385 70.5387C10.2404 70.2287 10.0388 69.9254 9.83732 69.6153L11.4024 69.392C10.0119 67.2918 8.61148 65.1816 7.27812 63.1648L6.07572 63.8615C6.07572 63.4782 6.09923 63.0915 6.07572 62.7115C6.05892 62.5614 5.8977 62.4248 5.81037 62.2781C5.61893 61.9647 5.43424 61.6447 5.24615 61.328L6.8314 61.128L6.45856 58.6111L4.17142 59.2179L4.57107 57.5877L3.3485 56.0409L5.36366 55.6576L4.74573 53.2974C4.17164 53.925 3.56274 54.5204 2.92196 55.0809C2.83463 55.1509 1.97148 54.5475 2.00507 54.4441C2.28004 53.7462 2.59632 53.0649 2.95221 52.404C2.40812 52.0939 1.03786 51.6373 1.06137 51.2639C1.13526 50.0038 0.594523 48.3137 2.4048 47.7803L0 46.4702L0.00336187 45.7968ZM56.9751 22.285L56.7601 22.3917C57.5461 23.3284 58.2044 24.4285 59.1582 25.1485C59.9273 25.7286 61.1028 26.2053 61.9928 26.062C62.6646 25.9553 63.1549 24.7918 63.709 24.1251C64.8476 25.5186 64.7166 26.1953 62.8929 27.8521L63.4303 28.0454L63.3833 28.3321H59.6149C60.5923 30.7823 63.1012 31.6657 64.6764 33.4692L61.5697 31.7291C62.4795 33.1812 63.4895 34.569 64.5924 35.8827C64.6092 35.906 64.5555 35.9827 64.5286 36.0494L63.8233 35.6694C64.5554 39.043 64.0651 40.8598 62.144 41.8765C63.4202 38.6729 62.7485 36.4027 60.3169 35.3627L60.9449 38.3629L60.6629 38.4363C60.2934 37.6262 59.924 36.8128 59.5579 36.0027C59.222 37.5662 58.913 39.1296 59.3228 40.4764C59.709 41.7398 60.8644 42.7766 61.6738 43.92C61.1536 43.939 60.6333 43.884 60.1288 43.7567C59.484 43.5266 58.9231 43.0633 58.0297 42.5199C58.2984 43.9567 58.3085 45.2435 58.8324 46.2735C59.0642 46.7369 60.327 46.6835 61.1196 46.8635C60.3673 47.3469 59.4134 47.8136 58.5906 47.6503C56.3739 47.2136 56.2027 45.1968 55.8735 43.6767C55.138 44.7601 54.3218 45.9201 53.556 47.1136C52.8843 48.1503 52.8843 49.1371 54.0901 49.7804C55.1514 50.3605 56.1053 50.3872 56.6326 48.9371C56.5385 49.6771 56.3269 50.5705 55.9138 50.6739C55.0271 50.8972 53.9188 50.9839 53.1128 50.6372C51.6048 49.9938 51.729 48.5637 52.2563 46.8769C50.8457 48.4937 51.1714 49.8771 52.1387 51.5639C50.0127 49.8071 50.8793 47.927 51.1748 45.6801C49.5896 48.0137 48.1521 49.8271 48.7902 52.524L46.9396 50.0905C46.4123 52.384 47.7457 53.6941 49.3142 55.0209C47.2285 54.3542 45.1831 52.884 44.2763 51.4273C44.2326 51.3606 44.0848 51.3606 43.9841 51.3272C43.1612 53.7908 43.6045 56.0176 45.2536 57.9944C46.812 59.8779 48.2763 61.848 49.9556 63.6148C59.9844 74.1757 68.2734 85.8899 74.4733 99.0809C76.4114 103.071 78.6302 106.921 81.1133 110.602C83.7833 114.666 86.8229 118.496 89.8456 122.659C99.1892 113.232 107.028 103.441 110.081 90.4303C106.41 90.527 103.468 89.1635 100.677 87.5334C88.2503 80.2728 78.9134 70.2454 73.7479 56.8077C71.6085 51.2506 70.1407 45.4101 68.7469 39.6096C67.2087 33.2025 66.2213 26.6687 63.3464 20.6415C60.9954 15.7111 58.2849 11.0041 54.3218 7.15045C50.1303 3.08013 45.1831 0.723298 39.1444 1.03999C45.0286 1.87672 49.1563 5.28033 52.5787 9.84736C54.6442 12.6109 55.887 15.7145 56.9785 18.9281C57.714 21.1016 58.6342 23.1884 60.9382 24.2618L60.6393 24.6585L56.9751 22.285ZM8.42 62.8381L9.45111 63.5049L10.331 62.2748L11.1673 63.5715C11.9465 63.0881 12.1749 62.5715 11.1673 61.9681C10.593 61.6347 10.0691 61.188 9.6224 60.8646L8.42 62.8381Z" fill="url(#paint0_linear_2654_167)"/>
<defs>
<linearGradient id="paint0_linear_2654_167" x1="56.6406" y1="240.227" x2="-74.121" y2="55.1091" gradientUnits="userSpaceOnUse">
<stop stop-color="#D99E3B"/>
<stop offset="1" stop-color="#FFC780"/>
</linearGradient>
</defs>
</svg>
