<svg width="29" height="27" viewBox="0 0 29 27" fill="none" xmlns="http://www.w3.org/2000/svg">
<path d="M9.33385 15.2302C10.3757 13.9749 11.3713 12.7326 12.4116 11.5297C15.8213 7.59293 19.5268 3.96383 23.7373 0.885875C24.5713 0.27495 25.4125 -0.0983009 26.463 0.0227177C27.0574 0.0912463 27.6693 -0.00935807 28.2623 0.0606286C28.5249 0.0912477 28.8871 0.307036 28.9722 0.530118C29.0574 0.753201 28.9362 1.17752 28.7529 1.35394C21.2035 8.6136 15.6582 17.3838 10.3078 26.3027C9.77106 27.1965 9.29778 27.2242 8.75668 26.4252C6.00067 22.3631 3.23745 18.3058 0.467006 14.2534C-0.175101 13.3158 -0.186644 13.2458 0.630059 12.4293C1.06294 12.0021 1.50448 11.5924 1.90706 11.1448C2.3688 10.6315 2.80456 10.6286 3.34999 11.0252C5.10893 12.2937 6.88951 13.5331 8.66288 14.7826C8.87788 14.9313 9.09721 15.0713 9.33385 15.2302Z" fill="#D93C2C"/>
</svg>
