<svg width="175" height="222" viewBox="0 0 175 222" fill="none" xmlns="http://www.w3.org/2000/svg">
<g filter="url(#filter0_d_2654_280)">
<path d="M155.368 173.495C156.195 171.115 156.306 170.203 155.123 170.837C153.695 171.603 148.283 172.027 142.566 169.453C136.849 166.879 132.28 161.009 126.531 156.4C121.855 152.699 117.187 148.991 113.029 144.778C99.8984 131.451 87.3216 117.569 74.5115 103.937C69.5069 98.6061 64.6803 93.0532 58.4968 89.0313C56.7442 87.893 56.1864 86.7428 56.7205 84.7199C57.302 84.6366 57.9429 84.5573 58.5838 84.4581C60.372 84.1805 61.4916 83.3 61.3769 81.3128C60.9813 74.455 62.093 67.8272 63.8614 61.1995C64.9375 57.1736 64.9731 53.0089 63.0702 49.0109C62.635 48.0986 62.9475 46.8056 63.0227 45.691C63.0227 45.5482 63.9049 45.2666 63.9682 45.3539C64.6408 46.2622 65.5507 47.1625 65.7604 48.2017C66.061 49.582 65.8553 51.0853 65.8078 52.5369C65.7169 55.2817 66.7534 57.4195 69.1271 58.8355C69.7002 59.1288 70.2924 59.3832 70.8995 59.5971C69.5623 61.14 67.3389 61.1836 68.6088 62.9447C69.4001 64.0433 69.0638 64.7612 68.6959 65.7846C68.3279 66.8079 68.3398 67.97 68.1816 69.0727C69.2339 69.0489 70.2902 69.0727 71.3465 68.9894C72.4701 68.918 73.5897 68.7791 74.8398 68.6562C74.5273 70.7465 73.7598 70.7346 72.5492 70.096C73.1268 70.7346 73.7796 71.2621 74.3888 71.2185C77.5063 70.9924 78.9661 67.4941 77.1226 64.8247C74.7488 61.3978 74.8161 60.8584 77.9138 58.3754C79.3578 57.2093 79.4646 55.9956 78.076 54.8057C77.1463 53.9807 76.0267 53.3778 75.0376 52.6123C73.5818 51.4859 73.5185 50.5141 74.8161 49.1774C75.6073 48.3842 76.4975 47.694 77.2768 46.8928C78.8593 45.2746 78.9464 43.6841 77.4984 41.9706C76.8343 41.2419 76.0957 40.5852 75.2948 40.0112C73.5857 38.7023 72.7114 37.1039 72.4147 34.855C72.1126 33.1347 71.3401 31.5323 70.1834 30.2262C68.8739 28.7111 67.0976 27.5846 65.436 26.4106C63.7744 25.2365 61.7409 24.2331 59.8973 25.1374C58.0537 26.0417 55.9411 27.5172 55.3833 29.2346C54.6197 31.4915 53.1243 32.0111 51.4706 32.8797C50.9225 33.2243 50.5295 33.769 50.3747 34.3988C50.0503 35.8227 50.1651 37.3815 49.6705 38.7182C48.7725 41.1416 48.7013 41.328 51.253 42.1173C52.788 42.5893 53.5793 43.5809 54.2241 45.0048C55.5376 47.928 55.2923 50.4506 52.883 52.6718C52.0601 53.4294 51.3005 54.2583 50.4895 55.0278C47.4709 57.9788 43.218 60.0571 43.7046 65.3998C41.4337 64.1702 40.5159 62.5401 40.5792 60.2436C40.6091 58.5908 40.5218 56.9379 40.3181 55.2975C40.1862 53.9891 39.7558 52.7287 39.0602 51.6138C38.3645 50.4989 37.4223 49.5594 36.3065 48.8681C36.3738 50.407 36.441 51.946 36.5241 53.8221C36.0177 53.4254 35.8476 53.3461 35.8318 53.2548C35.2146 49.2369 34.6449 45.2151 33.9882 41.2011C33.8695 40.4396 33.7706 39.5551 33.3235 38.9958C32.3938 37.8059 32.6787 37.0127 33.6915 36.144C34.9179 36.8064 36.0652 37.5441 37.3351 38.0835C38.8622 38.7459 40.0214 38.7777 40.8957 36.7509C41.77 34.7241 42.5098 32.3601 45.382 32.015C45.1921 30.8251 44.9864 29.7304 44.8638 28.6278C44.8084 28.1399 44.7372 27.3586 45.0022 27.1721C46.5135 26.1131 46.2999 24.5742 46.3829 23.0709C46.4106 22.5553 46.5926 21.8493 46.9605 21.5915C49.5993 19.7432 50.0424 17.4387 48.0168 15.0311C47.3918 15.0311 46.7746 14.9597 46.4344 14.6345C44.4048 12.7227 42.3911 10.803 39.4477 10.4817C36.0691 10.1089 32.6154 9.25612 29.494 11.4257C26.0085 13.8452 24.2876 17.2523 24.0621 21.4725C23.9553 23.4556 23.8959 25.4388 23.5992 27.3863C23.3579 28.9966 22.9346 30.956 21.087 31.2059C19.6035 31.3923 19.0575 31.9198 18.654 33.1613C18.4156 33.7676 18.05 34.3155 17.5819 34.7677C10.0651 42.629 7.15729 51.8468 10.1759 62.4012C13.234 73.1104 13.7364 83.7918 11.4142 94.6516C10.6229 98.3642 9.87519 102.093 9.01274 106.265C11.1253 105.619 13.0362 107.665 14.4881 106.095L17.4473 107.53C17.5514 107.805 17.6127 108.094 17.6293 108.387C17.4671 116.756 17.9537 125.208 16.9528 133.478C15.5919 144.719 12.9531 155.793 12.8146 167.192C12.7276 174.379 12.419 181.566 12.1184 188.753C12.0709 189.991 11.6911 191.228 11.3904 192.45C9.87915 198.534 9.23034 200.046 15.9084 200.997C20.458 201.644 25.0076 202.326 29.5652 202.858C32.0932 203.151 34.7636 203.687 37.165 203.163C39.5664 202.64 41.6316 201.414 43.9815 202.957C44.041 202.991 44.1071 203.012 44.1754 203.018C44.2437 203.024 44.3125 203.016 44.3772 202.993C47.0832 201.763 49.7497 202.655 52.4399 203.092C53.1283 203.203 53.872 202.937 54.592 202.905C57.6489 202.762 60.7057 202.63 63.7625 202.509C64.1581 202.509 64.5221 202.727 64.9098 202.755C66.5833 202.874 68.2646 202.913 69.9342 203.06C73.2336 203.346 76.5252 203.683 79.8246 204H82.1984C85.486 202.79 88.8052 202.017 92.3856 202.413C95.1114 202.711 98.0943 203.302 100.587 202.532C105.817 200.918 111.055 200.914 116.38 200.803C118.263 200.763 120.439 200.287 121.919 199.217C124.597 197.321 127.212 196.837 130.262 197.761C132.826 198.554 135.124 197.828 137.011 196.044C140.797 192.474 144.595 188.904 148.2 185.152C151.03 182.271 153.272 178.864 154.798 175.121C155 174.538 155.198 173.991 155.368 173.495ZM37.7545 153.707C37.2323 162.258 35.5746 170.718 31.5828 178.473C30.4553 180.662 28.9717 182.665 27.6543 184.751L27.0332 184.414C26.7761 177.957 27.4288 171.591 28.5643 165.221C31.927 146.488 35.1355 127.723 38.4152 108.974C38.4667 108.713 38.5759 108.467 38.7347 108.253C38.8935 108.04 39.0979 107.865 39.333 107.741C39.4377 108.234 39.4999 108.736 39.5189 109.24C38.973 124.062 38.6565 138.904 37.7545 153.707ZM41.3981 91.3318L40.9511 91.2922C40.8601 90.2847 40.7651 89.2773 40.6583 88.1191L42.5217 88.2182L41.3981 91.3318ZM39.3607 76.3192C39.0719 73.4594 38.7791 70.56 38.431 67.1292C40.6623 69.4772 42.6602 71.4406 44.4642 73.5665C44.9666 74.1655 44.9033 75.2443 45.1526 76.3192H39.3607Z" fill="url(#paint0_linear_2654_280)"/>
</g>
<defs>
<filter id="filter0_d_2654_280" x="0.6" y="0.6" width="173.8" height="220.8" filterUnits="userSpaceOnUse" color-interpolation-filters="sRGB">
<feFlood flood-opacity="0" result="BackgroundImageFix"/>
<feColorMatrix in="SourceAlpha" type="matrix" values="0 0 0 0 0 0 0 0 0 0 0 0 0 0 0 0 0 0 127 0" result="hardAlpha"/>
<feOffset dx="5" dy="4"/>
<feGaussianBlur stdDeviation="6.7"/>
<feComposite in2="hardAlpha" operator="out"/>
<feColorMatrix type="matrix" values="0 0 0 0 0.729167 0 0 0 0 0.500087 0 0 0 0 0.288628 0 0 0 0.12 0"/>
<feBlend mode="normal" in2="BackgroundImageFix" result="effect1_dropShadow_2654_280"/>
<feBlend mode="normal" in="SourceGraphic" in2="effect1_dropShadow_2654_280" result="shape"/>
</filter>
<linearGradient id="paint0_linear_2654_280" x1="75.6094" y1="318.636" x2="-96.819" y2="95.1967" gradientUnits="userSpaceOnUse">
<stop stop-color="#D99E3B"/>
<stop offset="1" stop-color="#FFC780"/>
</linearGradient>
</defs>
</svg>
