<svg width="46" height="112" viewBox="0 0 46 112" fill="none" xmlns="http://www.w3.org/2000/svg">
<path d="M21.0711 15.4057C20.0305 15.4771 19.8223 14.8111 19.8323 14.0182C19.8521 12.7754 19.525 11.5643 20.409 10.3275C20.853 9.70707 20.4407 8.46625 20.3971 7.50491C20.3971 7.33246 20.2366 7.16 20.2505 6.99548C20.4051 5.1283 20.7658 3.31861 21.8362 1.72497C21.9139 1.61852 22.0023 1.52023 22.0998 1.43161C22.7876 0.739844 25.6082 -0.138248 26.5755 0.0183418C28.4863 0.325574 30.405 0.575328 32.3039 0.93806C33.4932 1.16601 33.8718 2.34935 34.3396 3.21951C34.7836 4.04408 35.0987 5.21355 34.8688 6.06984C34.4169 7.75268 35.291 9.56634 34.2345 11.1461C34.0026 11.495 33.8381 11.9013 34.4228 12.2085C34.621 12.3116 34.7618 12.716 34.7519 12.9756C34.7322 13.9941 34.6548 15.0105 34.5199 16.0202C34.4149 16.7318 34.072 17.3066 33.1939 17.3819C32.9957 17.3998 32.7578 17.8121 32.6508 18.0876C32.5001 18.484 32.5913 19.0985 32.3376 19.2769C31.1721 20.1014 31.1721 21.3938 30.7915 22.5514C30.6273 23.0268 30.3038 23.4309 29.8758 23.6951C28.0641 24.6861 26.1989 25.5999 24.3674 26.5652C23.9194 26.8011 23.6023 26.7872 23.2515 26.4086C22.8035 25.927 22.296 25.5008 21.8362 25.0211C21.3169 24.4859 21.0552 23.925 21.5785 23.1936C21.7628 22.9359 21.7926 22.5038 21.7609 22.1629C21.5528 19.9647 21.3129 17.7526 21.0711 15.4057Z" fill="url(#paint0_linear_2654_168)"/>
<path d="M5.36651 89.9878C5.36651 90.3347 5.38038 90.5963 5.36651 90.8579C5.00774 96.4198 4.71041 101.988 4.26641 107.544C4.15145 108.971 4.0682 110.39 4.0682 111.801H16.5557C17.8758 106.915 19.1662 102.021 20.4744 97.1334C20.631 96.5546 20.8272 95.9858 21.0036 95.4129C21.9412 97.3812 22.8074 99.3177 23.3346 101.342C24.2405 104.812 25.0175 108.317 25.8559 111.803H35.947C35.8955 111.209 35.8539 110.614 35.836 110.019C35.6735 104.646 35.7805 99.2642 35.7964 93.8867C35.7964 93.5477 35.8499 93.0819 36.0679 92.8956C37.6537 91.4962 37.8043 89.5755 38.1076 87.6885C38.2543 86.7807 38.0481 86.192 37.0947 85.8867C35.3583 85.3298 33.6477 84.6974 31.953 84.1028C32.3019 83.3991 32.7736 82.6955 33.0055 81.9224C33.3148 80.8997 33.8757 80.7569 34.8291 80.9314C37.1542 81.3555 39.4673 81.7599 41.4217 83.2941C41.4983 83.1353 41.5645 82.9718 41.6199 82.8045C42.5634 78.529 43.6516 74.2813 44.3949 69.9681C45.0253 66.3408 45.6278 62.6342 45.5842 58.9751C45.497 50.4024 45.0015 41.8335 44.7259 33.2608C44.6922 32.2063 44.276 31.5977 43.388 31.2053C40.9526 30.1283 38.5166 29.0553 36.0798 27.9863C34.2008 27.1577 32.1611 26.571 31.0472 24.4541L28.3792 27.8237L28.5159 27.9585L30.9104 27.0388L31.1086 27.237C30.6091 28.1845 30.3157 29.3877 29.5645 30.0279C27.4813 31.7841 25.2038 33.3044 22.9937 34.9119C22.962 34.9357 22.8807 34.8861 22.8431 34.8762C22.4665 34.2181 22.7281 33.7603 23.1364 33.1954C23.7608 32.3391 24.2286 31.3619 24.7221 30.4204C24.9443 29.9124 25.1355 29.3914 25.295 28.8604C24.9544 28.4892 24.6355 28.0987 24.3396 27.6909C23.9432 27.0963 23.513 27.0963 22.9164 27.354C21.7152 27.8892 20.8946 28.7018 20.7579 30.0636C20.6766 30.8822 20.6469 31.7048 20.5596 32.5234C20.5339 32.8049 20.5121 33.1418 20.3495 33.344C19.3842 34.565 18.3773 35.7523 17.3763 36.9634C16.748 36.4183 16.6152 35.7008 16.9462 34.8742C17.5805 33.2885 18.1949 31.6869 18.8649 30.1171C19.0805 29.5343 19.4025 28.9966 19.8143 28.5314C20.0296 28.3351 20.1863 28.083 20.2668 27.803C20.3473 27.5231 20.3485 27.2263 20.2703 26.9456C18.6845 27.8158 17.1424 28.7296 15.5428 29.5224C14.513 30.0375 13.4423 30.4665 12.3417 30.8049C11.7321 30.9687 11.1812 31.3011 10.752 31.7639C10.3229 32.2267 10.0329 32.8012 9.91552 33.4213C9.6856 34.4342 9.67768 35.5006 9.58055 36.5432C9.19602 40.6462 8.83526 44.7513 8.42892 48.8523C8.19899 51.1774 8.05429 53.5282 7.5865 55.8096C6.72823 60.0019 5.5191 64.1347 4.73218 68.3289C4.20295 71.1455 3.80257 73.974 2.81348 76.6777C2.70555 77.0559 2.62147 77.4405 2.56175 77.8293C2.83726 77.7163 2.98593 77.6727 3.11676 77.5994C4.40317 76.8759 5.65985 77.1336 6.88283 77.7362C7.08105 77.8313 7.34268 78.1147 7.32088 78.2753C7.12266 79.6509 6.88681 81.0166 6.64697 82.4616C5.66977 81.6786 4.6212 81.7639 3.50922 81.8293C1.979 81.9185 1.9671 83.187 1.424 84.0949C0.569691 85.526 0.756016 86.7728 1.37841 88.3248C2.35561 90.737 3.01965 91.0681 5.36651 89.9878ZM36.9857 56.0931C37.5803 59.8592 37.4257 63.4013 36.9064 66.9394C36.0858 63.3834 35.3583 59.8394 36.9857 56.0832V56.0931Z" fill="url(#paint1_linear_2654_168)"/>
<defs>
<linearGradient id="paint0_linear_2654_168" x1="26.6571" y1="42.512" x2="2.11584" y2="18.7065" gradientUnits="userSpaceOnUse">
<stop stop-color="#D99E3B"/>
<stop offset="1" stop-color="#FFC780"/>
</linearGradient>
<linearGradient id="paint1_linear_2654_168" x1="21.1191" y1="163.419" x2="-58.4402" y2="93.7293" gradientUnits="userSpaceOnUse">
<stop stop-color="#D99E3B"/>
<stop offset="1" stop-color="#FFC780"/>
</linearGradient>
</defs>
</svg>
