<svg width="105" height="118" viewBox="0 0 105 118" fill="none" xmlns="http://www.w3.org/2000/svg">
<g filter="url(#filter0_d_2718_28)">
<path d="M14.5135 57.8631C13.9611 57.8033 13.6726 57.7576 13.384 57.747C9.5137 57.6168 9 57.0855 9 53.1413C9 48.6271 9 44.1129 9 39.5986C9 37.0442 9.97462 36.0802 12.5185 36.0802C19.2646 36.0802 26.0072 36.0802 32.7463 36.0802H34.4422L34.5196 35.7776C32.3733 34.7783 30.1954 33.8459 28.0878 32.7693C20.3155 28.8039 19.3232 17.784 26.2265 12.4253C32.5352 7.53113 41.9366 10.3706 44.491 18.0127C45.5993 21.3342 46.4649 24.7365 47.7702 28.1776C47.9426 27.678 48.1221 27.1819 48.2769 26.6752C49.0299 24.0293 49.7371 21.3693 50.5182 18.7305C52.1437 13.2381 56.8831 9.81111 62.481 10.0328C67.6603 10.2333 72.2097 14.0896 73.3356 19.2301C74.5741 24.8773 72.0795 30.338 67.0692 32.8361C65.0425 33.8494 62.9631 34.7537 60.9329 36.0027C61.4185 36.0309 61.9005 36.0872 62.386 36.0872H82.262C85.4286 36.0872 86.2555 36.8964 86.259 40.0033C86.259 44.5773 86.259 49.1513 86.259 53.7254C86.259 56.9131 85.4955 57.6942 82.3605 57.7611C81.8996 57.7611 81.4352 57.8139 80.7491 57.8561V59.9672C80.7491 72.106 80.7491 84.2436 80.7491 96.38C80.7491 99.3109 79.9363 100.113 76.9843 100.113H18.2255C15.3087 100.113 14.5064 99.2969 14.5029 96.3378C14.5029 84.26 14.5029 72.1799 14.5029 60.0974L14.5135 57.8631ZM20.0269 57.8878V94.6032H36.6905V57.8913L20.0269 57.8878ZM58.5685 57.8878V94.5504H75.2532V57.8842L58.5685 57.8878ZM52.8685 41.6781H42.4081V94.5962H52.8685V41.6781ZM36.7398 41.6781H14.6331V52.1632H36.7398V41.6781ZM80.6294 52.2335V41.6781H58.5861V52.2335H80.6294ZM51.8446 33.9092C56.57 31.6996 60.9575 29.7926 65.2149 27.6112C67.7764 26.2988 68.7826 23.0688 67.9769 20.1062C67.6216 18.796 66.8525 17.6357 65.7841 16.7981C64.7158 15.9605 63.4054 15.4906 62.0483 15.4583C60.63 15.4113 59.2376 15.8463 58.0983 16.6923C56.9589 17.5383 56.1399 18.7455 55.7748 20.1168C54.4659 24.5395 53.252 28.9869 51.8446 33.9092ZM43.4003 33.9092C41.9718 28.8884 40.7438 24.3214 39.361 19.8001C38.9379 18.4748 38.0859 17.3279 36.9393 16.5399C35.7928 15.752 34.4167 15.3678 33.0278 15.4477C31.6702 15.5106 30.3708 16.0172 29.3291 16.8899C28.2873 17.7626 27.5607 18.9531 27.261 20.2786C26.5115 23.2904 27.4721 26.3199 30.0124 27.6147C34.2874 29.7785 38.6749 31.6926 43.4003 33.9022V33.9092Z" fill="url(#paint0_linear_2718_28)"/>
<path d="M17.7129 57H38.7129V97H17.7129V57Z" fill="#F2F2F2"/>
<path d="M56.7129 57H77.7129V97H56.7129V57Z" fill="#F2F2F2"/>
<path d="M54.7129 41V97H40.7129V41H54.7129Z" fill="white"/>
<path d="M38.7129 41V53H12.7129V41H38.7129Z" fill="#F2F2F2"/>
<path d="M82.7129 53H56.7129V41H82.7129V53Z" fill="#F2F2F2"/>
</g>
<defs>
<filter id="filter0_d_2718_28" x="0.6" y="0.6" width="104.059" height="116.913" filterUnits="userSpaceOnUse" color-interpolation-filters="sRGB">
<feFlood flood-opacity="0" result="BackgroundImageFix"/>
<feColorMatrix in="SourceAlpha" type="matrix" values="0 0 0 0 0 0 0 0 0 0 0 0 0 0 0 0 0 0 127 0" result="hardAlpha"/>
<feOffset dx="5" dy="4"/>
<feGaussianBlur stdDeviation="6.7"/>
<feComposite in2="hardAlpha" operator="out"/>
<feColorMatrix type="matrix" values="0 0 0 0 0.729167 0 0 0 0 0.500087 0 0 0 0 0.288628 0 0 0 0.12 0"/>
<feBlend mode="normal" in2="BackgroundImageFix" result="effect1_dropShadow_2718_28"/>
<feBlend mode="normal" in="SourceGraphic" in2="effect1_dropShadow_2718_28" result="shape"/>
</filter>
<linearGradient id="paint0_linear_2718_28" x1="44.008" y1="153.362" x2="-33.0764" y2="40.3399" gradientUnits="userSpaceOnUse">
<stop stop-color="#D99E3B"/>
<stop offset="1" stop-color="#FFC780"/>
</linearGradient>
</defs>
</svg>
