<svg width="25" height="26" viewBox="0 0 25 26" fill="none" xmlns="http://www.w3.org/2000/svg">
<path d="M0 9.31396H24.5642V9.96265C24.5642 14.3499 24.5642 18.7372 24.5642 23.1244C24.5642 25.0423 23.6056 26.0008 21.6885 26H2.84119C0.969686 26 0.00115028 25.0322 0 23.1523C0 18.7426 0 14.336 0 9.93248V9.31396ZM7.41815 14.2679C7.35143 13.8571 7.36868 13.4034 7.19959 13.0378C6.81885 12.2139 6.02056 12.4228 5.32809 12.3926C4.72765 12.3671 4.02713 12.3996 3.88449 13.0459C3.7177 13.8049 3.67284 14.6706 3.87874 15.4098C4.11455 16.2488 5.00371 16.0921 5.70768 16.106C6.32883 16.1177 6.93733 16.0619 7.21685 15.4098C7.36179 15.0698 7.35373 14.6636 7.41815 14.2679ZM12.2838 12.3462C11.9008 12.4007 11.5005 12.388 11.1566 12.5226C10.5883 12.7466 10.4112 13.256 10.4422 13.8478C10.4836 14.6137 10.1834 15.6082 11.1382 15.9157C11.8837 16.1408 12.6782 16.1408 13.4238 15.9157C14.3785 15.6105 14.0806 14.616 14.1208 13.8501C14.1519 13.2595 13.977 12.7489 13.4088 12.5237C13.0649 12.388 12.6646 12.4007 12.2838 12.3462ZM17.1495 14.2389C17.2105 14.6311 17.1909 15.064 17.3508 15.4144C17.7212 16.2267 18.5011 16.0886 19.2051 16.1107C19.8285 16.1246 20.5394 16.0782 20.6935 15.4144C20.8638 14.6764 20.896 13.8246 20.7016 13.1016C20.4715 12.2383 19.5858 12.4158 18.8841 12.3984C18.2492 12.3833 17.6119 12.3984 17.3335 13.1005C17.1978 13.4382 17.2082 13.8432 17.1495 14.2389ZM7.40779 21.1006C7.35373 20.7014 7.36984 20.2767 7.23295 19.9123C7.0029 19.3054 6.45882 19.165 5.86297 19.1824C5.11414 19.2056 4.15711 18.9689 3.86954 19.8914C3.64811 20.6442 3.64811 21.4456 3.86954 22.1984C4.17436 23.1662 5.1636 22.8459 5.91819 22.8947C6.50023 22.9295 7.01095 22.7717 7.23295 22.1868C7.36063 21.8514 7.35258 21.4696 7.40779 21.1006ZM14.1944 21.0681C14.1047 20.6353 14.1047 20.1606 13.9092 19.7916C13.4364 18.8958 11.1358 18.8633 10.6665 19.7615C10.4608 20.1562 10.3533 20.5955 10.3533 21.0414C10.3533 21.4874 10.4608 21.9267 10.6665 22.3214C11.1163 23.2033 13.441 23.1743 13.9115 22.3063C14.1013 21.9547 14.1047 21.501 14.199 21.0681H14.1944ZM17.1622 21.031C17.2024 21.4081 17.1783 21.7922 17.2956 22.1276C17.498 22.7078 17.9858 22.926 18.577 22.8889C19.3661 22.8413 20.3864 23.1882 20.7165 22.152C20.9234 21.4318 20.9234 20.6673 20.7165 19.9471C20.4428 19.0048 19.5087 19.2021 18.7541 19.1824C18.1169 19.165 17.5406 19.2984 17.2979 19.9599C17.184 20.2906 17.2082 20.6759 17.1668 21.031H17.1622Z" fill="white"/>
<path d="M3.06076 1.91604C3.15739 3.85051 3.94303 4.85196 5.41538 4.95176C6.88774 5.05156 7.71019 4.10232 8.06103 1.88703H16.5616C16.5248 2.90822 16.6996 3.8946 17.621 4.46554C18.0885 4.7588 18.6268 4.91695 19.1773 4.92275C20.629 4.88213 21.3364 3.92012 21.5227 1.93344C23.025 1.6178 24.3984 2.53456 24.5135 4.07331C24.617 5.35676 24.5353 6.65529 24.5353 7.99445H0.0734899C0.0734899 6.58799 -0.0346387 5.19197 0.103395 3.81684C0.241428 2.44171 1.53434 1.71064 3.06076 1.91604Z" fill="white"/>
<path d="M4.32275 1.83242C4.32275 1.60033 4.30664 1.36824 4.32275 1.13615C4.34656 0.831165 4.48247 0.546162 4.70383 0.337067C4.9252 0.127972 5.21602 0.00988407 5.51924 0.00596037C5.82247 0.00203668 6.1162 0.112563 6.34281 0.315861C6.56941 0.51916 6.71253 0.800547 6.74408 1.10481C6.7803 1.5864 6.78261 2.06999 6.75098 2.5519C6.73378 2.86323 6.59992 3.15632 6.37651 3.37179C6.1531 3.58726 5.85686 3.709 5.54779 3.71235C4.88178 3.72047 4.36301 3.2238 4.31815 2.52173C4.30434 2.28964 4.31815 2.05755 4.31815 1.82546L4.32275 1.83242Z" fill="white"/>
<path d="M20.2428 1.86387C20.2428 2.09596 20.2578 2.32805 20.2428 2.56014C20.2196 2.86115 20.0872 3.14295 19.8709 3.35162C19.6546 3.56028 19.3696 3.68114 19.0705 3.69105C18.7714 3.70097 18.4792 3.59925 18.2498 3.40536C18.0204 3.21147 17.8699 2.93904 17.8272 2.64022C17.7835 2.1205 17.7835 1.59797 17.8272 1.07825C17.8632 0.777805 18.0082 0.501442 18.2342 0.302385C18.4601 0.103328 18.7511 -0.00433335 19.051 0.000133632C19.351 0.00460062 19.6387 0.120881 19.8587 0.32658C20.0788 0.532279 20.2156 0.812844 20.2428 1.11423C20.2658 1.36257 20.2428 1.61554 20.2428 1.8662V1.86387Z" fill="white"/>
</svg>
