<svg width="109" height="118" viewBox="0 0 109 118" fill="none" xmlns="http://www.w3.org/2000/svg">
<path d="M51.3366 20.1489C51.8122 19.8606 52.5472 19.9932 53.0948 19.8606C53.6424 19.7281 54.8731 20.2325 55.2507 20.5264L55.1931 20.0883C55.1931 20.0883 54.6166 19.6618 54.2967 19.3764C53.9768 19.0911 52.9795 18.6241 53.1092 18.2523C53.2389 17.8805 53.3974 17.4107 54.0776 17.5952C54.7579 17.7796 55.2075 18.284 55.4525 18.3907C56.0314 18.7156 56.543 19.148 56.9599 19.6646C56.9599 19.9154 56.9599 20.0999 56.9599 20.0999C56.9599 20.0999 57.2164 20.7023 57.13 20.0624C57.101 19.9181 57.0399 19.7821 56.9513 19.6646C56.9466 19.3216 56.9235 18.9791 56.8821 18.6386C56.8043 18.1313 56.3748 17.5635 56.4036 17.1974C56.4325 16.8314 56.4036 16.0791 56.8619 16.0445C57.3202 16.0099 58.2108 17.5577 58.3261 18.235C58.4414 18.9124 59.3147 20.708 59.3147 20.708L59.5712 21.9013C59.7782 21.696 60.0425 21.5584 60.3293 21.5064C60.7674 21.4488 60.8366 22.3711 60.7645 22.7977C60.6924 23.2242 61.2545 23.2098 61.2545 23.2098C61.2545 23.2098 61.2199 22.8409 61.6378 23.2761C62.0557 23.7113 63.5805 24.5962 63.9782 24.7634C64.376 24.9305 65.1945 24.9709 66.333 25.4292C67.4715 25.8874 67.313 25.2678 68.4342 25.6252C69.5554 25.9826 71.0282 26.5965 72.3425 26.9885C73.6569 27.3805 74.5792 27.7667 75.7667 27.7379C76.9542 27.709 77.7554 27.4496 78.623 27.7696C79.4905 28.0895 79.2311 27.2825 80.5195 27.4381C81.8079 27.5937 81.9347 26.6599 83.0934 27.1874C84.252 27.7148 83.2375 27.1153 83.2375 27.1153C83.2375 27.1153 82.9493 26.2766 84.1223 26.3774C85.2954 26.4783 85.7652 26.0027 86.3878 26.0114C86.6737 26.0391 86.9622 25.9986 87.2294 25.8932C87.2294 25.8932 84.938 24.1177 84.6613 23.6105C84.3846 23.1032 84.8026 23.3712 83.373 22.5008C81.9434 21.6303 82.0731 21.2585 81.462 20.9905C80.851 20.7224 78.8132 19.1948 78.6028 18.6991C78.5003 18.42 78.5003 18.1135 78.6028 17.8344C79.4214 17.9122 78.6374 17.3271 78.6374 17.3271L78.6835 17.6326C78.6517 17.6978 78.6247 17.7653 78.6028 17.8344H78.5192C77.5537 17.7018 76.4815 17.8114 75.6543 17.2753C74.8271 16.7392 74.6138 16.4394 73.5502 16.3241C72.4867 16.2088 70.7458 15.4133 71.3683 14.4679C71.9909 13.5225 73.8615 14.5025 73.9854 14.3584C74.0623 14.2364 74.0977 14.0929 74.0863 13.9491C74.0863 13.9491 72.9334 12.9634 72.8556 12.3235C72.8324 12.1447 72.7514 11.9785 72.6249 11.8499C72.4985 11.7214 72.3336 11.6377 72.1552 11.6116C72.1552 11.6116 71.5614 12.1881 71.1406 11.9632C71.0096 11.8722 70.9007 11.753 70.8219 11.6143C70.7431 11.4757 70.6964 11.3211 70.6852 11.162L71.1579 10.7181L70.6391 10.1013C70.6391 10.1013 70.152 10.2483 69.8926 10.0408L69.3363 9.64878C69.3363 9.64878 68.6302 9.9226 68.3938 9.3865C68.1575 8.8504 68.0422 8.17595 68.8146 8.27683L69.1029 8.19324C69.1029 8.19324 70.2558 8.19324 70.6852 8.1673C71.0872 8.16994 71.4882 8.20561 71.8843 8.27394C72.5155 8.27201 73.1353 8.44288 73.6764 8.76805C74.2175 9.09321 74.6593 9.56027 74.9539 10.1186L76.1241 11.5338C76.6393 11.8507 77.1714 12.1394 77.718 12.3985C78.5106 12.7645 79.969 13.4735 79.969 13.4735L81.2603 13.9924L81.2833 13.6667L82.5429 14.1797L82.3353 13.2891C82.3353 13.2891 81.7935 11.6491 81.8425 11.1649L81.5225 11.701C81.5225 11.701 80.9692 9.37209 81.6436 8.30277C81.6436 8.30277 83.8226 4.0399 85.1023 3.4721C86.382 2.90429 91.2242 2.68236 92.3858 2.42007C93.5473 2.15778 95.905 2.23561 96.5622 2.6103L96.7149 1.7168L97.1185 2.44313L97.6113 1.86668L98.4126 3.30781L100.125 2.1549L99.211 3.64215L100.326 4.42612L99.9604 5.01987L101.69 5.6482L101.419 6.06037C101.419 6.06037 102.505 6.63682 102.632 8.57082L102.157 8.28259L102.837 10.8334L102.37 10.0955C102.37 10.0955 103.177 14.9694 100.877 19.1775L100.848 18.5809L99.7154 21.345L99.4272 21.1634L99.3061 22.2616C99.3061 22.2616 100.701 22.1722 101.061 22.3653C101.422 22.5584 103.186 26.4783 103.033 28.885C102.88 31.2917 102.972 32.6896 102.517 36.8833C102.062 41.077 102.358 40.4746 102.575 42.2875C102.791 44.1005 102.468 49.0407 101.799 50.6461C101.799 50.6461 104.615 63.3597 104.546 64.5328L104.013 64.3484C104.013 64.3484 103.52 70.0841 103.8 71.9056C104.079 73.7272 103.321 75.275 103.073 76.7133C102.825 78.1515 102.321 83.3915 101.966 84.3167C101.612 85.2419 101.292 84.7922 100.632 85.7578C99.9719 86.7234 100.883 87.1816 100.989 87.6947C101.096 88.2077 101.566 90.1561 101.566 90.1561C101.566 90.1561 102.978 91.1159 102.142 93.1767L101.779 94.1394L102.445 95.4364C102.445 95.4364 103.624 96.0331 103.618 97.2148C103.612 98.3965 105.235 99.8607 105.636 100.918C106.036 101.976 106.538 103.144 106.538 103.144C106.538 103.144 108.126 105.389 108.025 105.962C107.924 106.536 106.685 109.185 106.685 109.185L106.154 109.389C106.154 109.389 102.805 115.128 100.678 116.045C98.5509 116.961 95.2969 117.869 93.3369 116.261C93.3369 116.261 92.7605 115.243 93.0689 114.768C93.0689 114.768 93.2216 112.603 94.6628 111.096C96.1039 109.588 95.0058 109.095 95.294 108.441C95.4902 107.957 95.6351 107.454 95.7263 106.94C95.7263 106.94 95.1931 106.98 95.3055 106.075C95.4179 105.17 95.3718 104.155 96.3172 104.011V103.487C96.3172 103.487 95.8042 103.397 95.588 102.622C95.3718 101.847 95.8186 100.512 95.8186 100.512C95.8186 100.512 95.3286 100.561 94.9366 99.5293C94.5446 98.4974 95.343 97.6702 94.9193 96.8084C94.4956 95.9466 92.1927 95.595 91.9131 94.4075C91.6335 93.22 92.2215 92.6176 91.3021 91.3206C91.2139 91.1907 91.1176 91.0665 91.0138 90.9488C90.9689 89.2005 91.0799 87.4518 91.3453 85.7232C91.3453 85.7232 91.0571 89.5768 90.962 90.5251C90.8755 91.3609 90.3682 90.2368 91.0138 90.9488C91.0282 91.7961 91.0455 92.5196 91.0628 92.9894C91.1493 95.1741 91.7776 95.3471 91.3511 96.3242C91.3511 96.3242 90.7285 97.2696 90.8121 97.9411C90.8957 98.6127 91.5269 99.9068 90.7458 100.627C90.7458 100.627 91.4145 100.939 91.4721 102.132C91.5031 102.939 91.4742 103.747 91.3856 104.55C91.3856 104.55 91.867 106.738 91.7978 107.516C91.7286 108.294 92.7345 109.715 92.3051 110.686L92.8066 110.839C92.8066 110.839 93.2418 113.281 92.5904 113.629C91.939 113.978 86.6818 114.719 86.4224 115.07C86.163 115.422 84.4048 115.315 84.4048 115.315C84.4048 115.315 82.0154 115.828 81.5485 115.877C81.0816 115.926 76.3604 116.065 74.9856 115.705C74.2016 115.5 73.7664 114.477 74.2448 114.361C74.7233 114.246 73.8211 113.099 74.4869 111.897C75.1527 110.695 78.8709 109.632 79.3637 109.058C79.6375 108.771 79.8356 108.42 79.9402 108.038C80.2393 107.955 80.5172 107.81 80.7554 107.611C80.9935 107.412 81.1863 107.164 81.3208 106.885C81.8137 105.919 82.4967 105.772 82.4967 105.772C82.3132 105.169 82.2649 104.532 82.3555 103.907C82.5198 102.95 83.0991 102.654 83.0991 102.654C83.0991 102.654 82.4016 101.351 83.1683 101.481C83.935 101.61 83.3499 101.192 83.3499 101.192C83.4716 100.509 83.5458 99.8189 83.5718 99.1257C83.5545 98.4657 82.4189 97.1485 82.4189 97.1485C82.4189 97.1485 82.8686 97.0995 82.2229 96.2636C81.5773 95.4278 80.3091 95.4364 80.6896 93.5947C81.07 91.7529 81.0268 90.5452 80.3062 89.3664C79.5857 88.1875 80.0411 84.4492 79.8797 83.1061C79.7183 81.763 80.1391 79.6647 80.6838 77.258C81.2286 74.8513 81.9174 73.5255 81.9174 71.6174C81.9174 69.7094 81.8165 69.8881 81.7704 68.6314C81.7243 67.3747 82.2777 64.9075 82.2777 64.9075L81.8425 64.7663C81.8425 64.7663 81.3871 57.8489 81.8944 56.0273C82.4016 54.2057 81.5052 52.9375 81.5139 51.3609C81.5225 49.7843 81.8742 49.6315 81.3813 47.5217C80.8884 45.4119 82.3123 40.1863 81.8627 38.5867C81.413 36.987 81.2862 37.3704 81.2862 37.3704C81.2862 37.3704 78.4875 36.4279 77.7007 36.0301C76.9138 35.6324 73.4032 34.6351 72.4549 34.4074C71.5067 34.1797 68.5581 33.7387 66.8576 32.9202C65.1571 32.1016 62.4564 30.5884 61.7128 30.3261C61.1564 30.1458 60.5882 30.0042 60.0122 29.9024C60.0122 29.9024 58.7498 30.3434 57.5364 27.833L57.4528 27.5447C57.4528 27.5447 56.493 26.8213 56.0952 26.4553C55.6975 26.0892 54.4552 24.8931 54.2131 24.3916C54.2131 24.3916 53.775 23.8872 53.507 23.9073C53.2389 23.9275 53.4147 24.4492 52.8066 24.3454C52.701 24.3359 52.5987 24.3042 52.5064 24.2522C52.414 24.2003 52.3337 24.1293 52.2708 24.0441C52.2079 23.9588 52.1638 23.8612 52.1414 23.7576C52.1189 23.6541 52.1187 23.5469 52.1408 23.4433C52.1955 23.1234 52.3944 21.3825 54.7175 22.6017C54.7175 22.6017 53.9854 21.884 53.7894 21.688C53.7894 21.688 52.9247 21.3998 52.6625 21.3623C52.4002 21.3248 51.8352 21.3854 51.6594 21.2557C51.4836 21.126 50.861 20.4284 51.3366 20.1489Z" fill="url(#paint0_linear_2654_282)"/>
<path d="M78.6028 17.8344C78.5003 18.1135 78.5003 18.42 78.6028 18.6991C78.8132 19.1948 80.851 20.7224 81.462 20.9905C82.0731 21.2585 81.9434 21.6303 83.373 22.5008C84.8026 23.3712 84.3846 23.1032 84.6613 23.6105C84.938 24.1177 87.2294 25.8932 87.2294 25.8932C86.9622 25.9986 86.6737 26.0391 86.3878 26.0114C85.7652 26.0027 85.2954 26.4783 84.1223 26.3774C82.9493 26.2766 83.2375 27.1153 83.2375 27.1153C83.2375 27.1153 84.252 27.7148 83.0934 27.1874C81.9347 26.6599 81.8079 27.5937 80.5195 27.4381C79.2312 27.2825 79.4905 28.0895 78.623 27.7696C77.7554 27.4496 76.9542 27.709 75.7667 27.7379C74.5792 27.7667 73.6569 27.3805 72.3425 26.9885C71.0282 26.5965 69.5554 25.9826 68.4342 25.6252C67.313 25.2678 67.4715 25.8874 66.333 25.4292C65.1945 24.9709 64.376 24.9305 63.9782 24.7634C63.5805 24.5962 62.0557 23.7113 61.6378 23.2761C61.2199 22.8409 61.2545 23.2098 61.2545 23.2098C61.2545 23.2098 60.6924 23.2242 60.7645 22.7977C60.8366 22.3711 60.7674 21.4488 60.3293 21.5064C60.0425 21.5584 59.7782 21.696 59.5712 21.9013L59.3147 20.708C59.3147 20.708 58.4414 18.9124 58.3261 18.235C58.2108 17.5577 57.3202 16.0099 56.8619 16.0445C56.4036 16.0791 56.4325 16.8314 56.4036 17.1974C56.3748 17.5635 56.8043 18.1313 56.8821 18.6386C56.9235 18.9791 56.9466 19.3216 56.9513 19.6646C57.0399 19.7821 57.101 19.9181 57.13 20.0624C57.2164 20.7023 56.9599 20.0999 56.9599 20.0999C56.9599 20.0999 56.9599 19.9154 56.9599 19.6646C56.543 19.148 56.0314 18.7156 55.4525 18.3907C55.2075 18.284 54.7579 17.7796 54.0776 17.5952C53.3974 17.4107 53.2389 17.8805 53.1092 18.2523C52.9795 18.6241 53.9768 19.0911 54.2967 19.3764C54.6166 19.6618 55.1931 20.0883 55.1931 20.0883L55.2507 20.5264C54.8731 20.2325 53.6424 19.7281 53.0948 19.8606C52.5472 19.9932 51.8122 19.8606 51.3366 20.1489C50.861 20.4284 51.4836 21.126 51.6594 21.2557C51.8352 21.3854 52.4002 21.3248 52.6625 21.3623C52.9247 21.3998 53.7894 21.688 53.7894 21.688C53.9854 21.884 54.7175 22.6017 54.7175 22.6017C52.3944 21.3825 52.1955 23.1234 52.1408 23.4433C52.1187 23.5469 52.1189 23.6541 52.1414 23.7576C52.1638 23.8612 52.2079 23.9588 52.2708 24.0441C52.3337 24.1293 52.414 24.2003 52.5064 24.2522C52.5987 24.3042 52.701 24.3359 52.8066 24.3454C53.4147 24.4492 53.2389 23.9275 53.507 23.9073C53.775 23.8872 54.2131 24.3916 54.2131 24.3916C54.4552 24.8931 55.6975 26.0892 56.0952 26.4553C56.493 26.8213 57.4528 27.5447 57.4528 27.5447L57.5364 27.833C58.7498 30.3434 60.0122 29.9024 60.0122 29.9024C60.5882 30.0042 61.1564 30.1458 61.7128 30.3261C62.4564 30.5884 65.1571 32.1016 66.8576 32.9202C68.5581 33.7387 71.5067 34.1797 72.4549 34.4074C73.4032 34.6351 76.9138 35.6324 77.7007 36.0301C78.4875 36.4279 81.2862 37.3704 81.2862 37.3704C81.2862 37.3704 81.413 36.987 81.8627 38.5867C82.3123 40.1863 80.8884 45.4119 81.3813 47.5217C81.8742 49.6315 81.5225 49.7843 81.5139 51.3609C81.5052 52.9375 82.4016 54.2057 81.8944 56.0273C81.3871 57.8489 81.8425 64.7663 81.8425 64.7663L82.2777 64.9075C82.2777 64.9075 81.7243 67.3747 81.7704 68.6314C81.8165 69.8881 81.9174 69.7094 81.9174 71.6174C81.9174 73.5255 81.2286 74.8513 80.6838 77.258C80.1391 79.6647 79.7183 81.763 79.8797 83.1061C80.0411 84.4493 79.5857 88.1875 80.3062 89.3664C81.0268 90.5452 81.07 91.7529 80.6896 93.5947C80.3091 95.4364 81.5773 95.4278 82.2229 96.2636C82.8686 97.0995 82.4189 97.1485 82.4189 97.1485C82.4189 97.1485 83.5545 98.4657 83.5718 99.1257C83.5458 99.8189 83.4716 100.509 83.3499 101.192C83.3499 101.192 83.935 101.61 83.1683 101.481C82.4016 101.351 83.0991 102.654 83.0991 102.654C83.0991 102.654 82.5198 102.95 82.3555 103.907C82.2649 104.532 82.3132 105.169 82.4967 105.772C82.4967 105.772 81.8137 105.919 81.3208 106.885C81.1863 107.164 80.9935 107.412 80.7554 107.611C80.5172 107.81 80.2393 107.955 79.9402 108.038C79.8356 108.42 79.6375 108.771 79.3637 109.058C78.8709 109.632 75.1527 110.695 74.4869 111.897C73.8211 113.099 74.7233 114.246 74.2448 114.361C73.7664 114.477 74.2016 115.5 74.9856 115.705C76.3604 116.065 81.0816 115.926 81.5485 115.877C82.0154 115.828 84.4048 115.315 84.4048 115.315C84.4048 115.315 86.163 115.422 86.4224 115.07C86.6818 114.719 91.939 113.978 92.5904 113.629C93.2418 113.281 92.8066 110.839 92.8066 110.839L92.3051 110.686C92.7345 109.715 91.7286 108.294 91.7978 107.516C91.867 106.738 91.3856 104.55 91.3856 104.55C91.4742 103.747 91.5031 102.939 91.4721 102.132C91.4145 100.939 90.7458 100.627 90.7458 100.627C91.5269 99.9068 90.8957 98.6127 90.8121 97.9411C90.7285 97.2696 91.3511 96.3242 91.3511 96.3242C91.7776 95.3471 91.1493 95.1742 91.0628 92.9894C91.0455 92.5196 91.0282 91.7961 91.0138 90.9488M78.6028 17.8344C79.4214 17.9122 78.6374 17.3271 78.6374 17.3271L78.6835 17.6326C78.6517 17.6978 78.6247 17.7653 78.6028 17.8344ZM78.6028 17.8344H78.5192C77.5537 17.7018 76.4815 17.8114 75.6543 17.2753C74.8271 16.7392 74.6138 16.4394 73.5502 16.3241C72.4866 16.2088 70.7458 15.4133 71.3683 14.4679C71.9909 13.5225 73.8615 14.5025 73.9854 14.3584C74.0623 14.2364 74.0977 14.0929 74.0863 13.9491C74.0863 13.9491 72.9334 12.9634 72.8556 12.3235C72.8324 12.1447 72.7514 11.9785 72.6249 11.8499C72.4985 11.7214 72.3336 11.6377 72.1552 11.6116C72.1552 11.6116 71.5614 12.1881 71.1406 11.9632C71.0096 11.8722 70.9007 11.753 70.8219 11.6143C70.7431 11.4757 70.6964 11.3211 70.6852 11.162L71.1579 10.7181L70.6391 10.1013C70.6391 10.1013 70.152 10.2483 69.8926 10.0408L69.3363 9.64878C69.3363 9.64878 68.6302 9.9226 68.3938 9.3865C68.1575 8.8504 68.0422 8.17595 68.8146 8.27683L69.1029 8.19324C69.1029 8.19324 70.2558 8.19324 70.6852 8.1673C71.0872 8.16994 71.4882 8.20561 71.8843 8.27394C72.5155 8.27201 73.1353 8.44288 73.6764 8.76805C74.2175 9.09321 74.6593 9.56026 74.9539 10.1186L76.1241 11.5338C76.6393 11.8507 77.1714 12.1394 77.718 12.3985C78.5106 12.7645 79.969 13.4735 79.969 13.4735L81.2603 13.9924L81.2833 13.6667L82.5429 14.1797L82.3353 13.2891C82.3353 13.2891 81.7935 11.6491 81.8425 11.1649L81.5225 11.701C81.5225 11.701 80.9692 9.37209 81.6436 8.30277C81.6436 8.30277 83.8226 4.0399 85.1023 3.4721C86.382 2.90429 91.2242 2.68236 92.3858 2.42007C93.5473 2.15778 95.905 2.23561 96.5622 2.6103L96.7149 1.7168L97.1185 2.44313L97.6113 1.86668L98.4126 3.30781L100.125 2.1549L99.211 3.64215L100.326 4.42612L99.9604 5.01987L101.69 5.6482L101.419 6.06037C101.419 6.06037 102.505 6.63682 102.632 8.57082L102.157 8.28259L102.837 10.8334L102.37 10.0955C102.37 10.0955 103.177 14.9694 100.877 19.1775L100.848 18.5809L99.7154 21.345L99.4272 21.1634L99.3061 22.2616C99.3061 22.2616 100.701 22.1722 101.061 22.3653C101.422 22.5584 103.186 26.4783 103.033 28.885C102.88 31.2917 102.972 32.6896 102.517 36.8833C102.062 41.077 102.358 40.4746 102.575 42.2875C102.791 44.1005 102.468 49.0407 101.799 50.6461C101.799 50.6461 104.615 63.3597 104.546 64.5328L104.013 64.3484C104.013 64.3484 103.52 70.0841 103.8 71.9056C104.079 73.7272 103.321 75.275 103.073 76.7133C102.825 78.1515 102.321 83.3915 101.966 84.3167C101.612 85.2419 101.292 84.7922 100.632 85.7578C99.9719 86.7234 100.883 87.1816 100.989 87.6947C101.096 88.2077 101.566 90.1561 101.566 90.1561C101.566 90.1561 102.978 91.1159 102.142 93.1767L101.779 94.1394L102.445 95.4364C102.445 95.4364 103.624 96.0331 103.618 97.2148C103.612 98.3965 105.235 99.8607 105.636 100.918C106.036 101.976 106.538 103.144 106.538 103.144C106.538 103.144 108.126 105.389 108.025 105.962C107.924 106.536 106.685 109.185 106.685 109.185L106.154 109.389C106.154 109.389 102.805 115.128 100.678 116.045C98.5509 116.961 95.2969 117.869 93.3369 116.261C93.3369 116.261 92.7605 115.243 93.0689 114.768C93.0689 114.768 93.2216 112.603 94.6628 111.096C96.1039 109.588 95.0058 109.095 95.294 108.441C95.4902 107.957 95.6351 107.454 95.7263 106.94C95.7263 106.94 95.1931 106.98 95.3055 106.075C95.4179 105.17 95.3718 104.155 96.3172 104.011V103.487C96.3172 103.487 95.8042 103.397 95.588 102.622C95.3718 101.847 95.8186 100.512 95.8186 100.512C95.8186 100.512 95.3286 100.561 94.9366 99.5293C94.5446 98.4974 95.343 97.6702 94.9193 96.8084C94.4956 95.9466 92.1927 95.595 91.9131 94.4075C91.6335 93.22 92.2215 92.6176 91.3021 91.3206C91.2139 91.1907 91.1176 91.0665 91.0138 90.9488M91.0138 90.9488C90.9689 89.2005 91.0799 87.4518 91.3453 85.7232C91.3453 85.7232 91.0571 89.5768 90.962 90.5251C90.8755 91.3609 90.3682 90.2368 91.0138 90.9488Z" stroke="url(#paint1_linear_2654_282)"/>
<path d="M47.1573 9.21667L47.385 8.53357C47.407 8.3852 47.4548 8.24181 47.5262 8.10988L47.385 8.53357C47.3698 8.61237 47.3712 8.69348 47.3891 8.77171C47.407 8.84994 47.4411 8.92356 47.4891 8.98786C47.5371 9.05216 47.5981 9.10573 47.668 9.14513C47.7379 9.18453 47.8153 9.2089 47.8952 9.21667C48.78 9.43572 48.3361 7.66601 48.3361 7.66601C48.3361 7.66601 48.7454 5.90495 46.9555 4.68575C46.9555 4.68575 46.2696 3.55591 45.5807 3.50691C45.5807 3.50691 44.3039 3.16104 43.419 3.7029C43.037 3.91661 42.6434 4.10906 42.2402 4.27935L40.2802 3.54438C40.2501 3.41599 40.1974 3.29399 40.1246 3.18409C40.0109 3.00288 39.8407 2.86411 39.6404 2.78922C39.5829 2.77021 39.5221 2.76371 39.4619 2.77017C39.4018 2.77664 39.3437 2.79591 39.2916 2.82669C39.2453 2.86058 39.2066 2.90369 39.1778 2.95329C39.149 3.0029 39.1309 3.05793 39.1244 3.11492L38.8621 3.01692C38.803 2.65164 38.6653 2.30354 38.4586 1.9966C38.1925 1.56058 37.7859 1.22817 37.3057 1.0541C37.1728 1.00703 37.0311 0.990361 36.8909 1.00533C36.7508 1.02029 36.6157 1.06651 36.4958 1.14057C35.9511 1.50085 35.9597 2.44047 36.5131 3.28209C36.7792 3.71873 37.1857 4.05205 37.666 4.22747C37.799 4.27393 37.9406 4.29027 38.0807 4.27532C38.2207 4.26037 38.3557 4.21449 38.4759 4.141C38.6095 4.04155 38.7163 3.91048 38.7867 3.75956C38.8572 3.60864 38.889 3.44259 38.8794 3.27633L39.1388 3.37432C39.1692 3.50173 39.2219 3.62274 39.2945 3.73172C39.4056 3.9152 39.5766 4.05468 39.7787 4.12659C39.8355 4.14634 39.896 4.15322 39.9559 4.14674C40.0157 4.14026 40.0733 4.12058 40.1246 4.08912C40.1718 4.05617 40.2112 4.01329 40.2401 3.96351C40.2689 3.91372 40.2866 3.85822 40.2917 3.8009L41.9894 4.43788C41.9111 4.50076 41.8455 4.57805 41.7963 4.66558C41.5513 5.10656 40.5684 8.00612 40.5194 8.15311C40.4704 8.30011 35.7032 11.9375 34.9653 12.2834C33.663 12.9907 32.457 13.8626 31.3769 14.8774C30.5411 15.7623 26.5606 18.7108 26.5606 18.7108C26.2568 18.6202 25.9451 18.5584 25.6297 18.5264C26.1561 18.2696 26.5629 17.8194 26.7653 17.2697C26.9122 16.8403 26.9346 16.3781 26.8301 15.9364C26.7255 15.4948 26.4982 15.0917 26.1744 14.7737C26.4886 13.909 25.843 13.7706 25.843 13.7706C26.2407 13.2864 25.6585 12.3295 25.5144 12.2229C25.3703 12.1162 24.7419 11.4562 24.7419 11.4562C25.2607 9.796 24.4105 9.52507 23.4536 9.55966C23.177 9.56407 22.9057 9.48353 22.6764 9.32891C22.447 9.17429 22.2706 8.95302 22.171 8.69498C20.9835 4.99416 18.5278 4.37159 18.5278 4.37159L19.6259 4.59928C18.1444 2.51253 14.2937 2.29347 14.2937 2.29347C7.71929 2.5817 4.33551 7.7323 4.33551 7.7323L5.17426 6.43529C2.49087 7.90236 1.60025 9.73836 1.60025 9.73836L1.73861 8.85062C-0.538381 12.4131 1.41002 14.5344 1.41002 14.5344C1.37751 15.8884 1.49544 17.2417 1.76165 18.5696C2.19111 20.518 4.13088 21.7257 4.13088 21.7257L3.46796 20.3422C3.13201 19.8532 2.87522 19.3144 2.70704 18.7454L3.46796 20.3422C4.75922 22.2243 6.99008 23.1582 8.59839 24.2333C10.616 25.5706 10.2499 25.7292 10.4834 25.3862C10.7168 25.0432 8.17757 23.4233 9.65906 24.2333C10.3521 24.5932 11.1091 24.8135 11.887 24.8818C11.1636 25.6629 10.5785 26.3229 10.492 26.5592C10.2442 27.1991 5.30395 34.5662 3.52848 42.3108C3.49677 42.452 3.93201 42.38 3.88301 42.7748C3.83401 43.1697 3.59478 44.1958 3.73313 44.6426C4.25482 46.248 7.05061 48.6258 8.03346 49.8566C8.93693 50.8995 9.90538 51.8843 10.933 52.8051C10.933 52.8051 12.0629 55.2118 11.7199 55.9497C11.3769 56.6875 10.688 57.0305 10.786 57.4715C10.884 57.9125 10.933 58.1604 10.933 58.1604C10.933 58.1604 8.47733 62.5328 8.67333 66.8072C8.86932 71.0816 9.31318 75.3588 9.36218 76.0967C9.61494 78.4031 10.1214 80.6747 10.8725 82.87C11.9043 85.8186 11.9043 86.9974 11.3164 87.7353C10.7284 88.4731 9.84064 91.1248 9.84064 91.1248L10.7255 92.0097L10.5785 103.954C10.5785 103.954 10.4488 106.395 10.1519 106.692C9.85506 106.989 9.12008 107.208 9.04802 107.946C8.97596 108.684 7.20337 111.482 8.23522 112.736C9.26707 113.99 15.1527 115.685 17.1558 115.906C19.159 116.128 26.2955 118.189 27.6242 116.422C28.8434 114.794 26.9469 113.229 24.5114 111.612C26.3675 111.831 28.1949 111.86 28.7223 111.099C29.7369 109.64 27.7914 108.346 25.5518 107.006C25.5518 107.006 22.6321 105.037 22.2055 104.7C21.779 104.363 21.0843 103.201 21.0843 103.201L20.6981 102.386L20.2225 100.743L21.312 93.2923L22.5053 93.4854C22.5053 93.4854 24.3701 87.7209 25.1887 85.856C26.0073 83.9912 25.3616 82.4694 25.9611 81.0254C26.6357 79.4145 27.2283 77.7704 27.7366 76.0996C28.2518 74.0702 28.6369 72.01 28.8895 69.9315H28.7829C29.4343 67.1761 30.1519 63.4436 29.8522 61.9448L30.6621 62.1667C30.6621 62.1667 31.6882 50.9547 30.884 45.2132C30.5065 42.5068 29.0394 37.5464 28.9673 36.6616C28.8953 35.7767 27.4196 29.1418 27.4196 29.1418C27.4196 29.1418 29.7052 26.7091 29.7052 24.7204L30.59 23.7606L32.7258 22.5097C32.7258 22.5097 37.2221 19.4112 38.254 18.2324C39.2858 17.0535 42.9722 12.3353 43.8571 10.7875C44.2429 10.633 44.5891 10.3937 44.87 10.0874C45.1508 9.78108 45.3593 9.41553 45.4798 9.01779C45.8487 7.69195 46.2897 7.76689 46.2897 7.76689C46.2897 7.76689 46.4973 8.9198 47.1573 9.21667ZM38.1617 3.67696C38.1106 3.70233 38.0548 3.71695 37.9978 3.71992C37.9408 3.7229 37.8838 3.71416 37.8303 3.69425C37.4781 3.55489 37.1814 3.30377 36.9858 2.97945C36.5996 2.403 36.5707 1.78043 36.8071 1.62767C36.858 1.60163 36.9139 1.58663 36.971 1.58365C37.0281 1.58067 37.0852 1.58977 37.1385 1.61038C37.4911 1.74768 37.7881 1.99807 37.983 2.3223C38.3693 2.91604 38.3952 3.52132 38.1617 3.67696ZM39.9776 3.87872C39.9586 3.88731 39.9379 3.89176 39.9171 3.89176C39.8962 3.89176 39.8755 3.88731 39.8565 3.87872C39.7145 3.82402 39.5955 3.72229 39.5193 3.59049C39.502 3.56167 39.4847 3.53285 39.4703 3.50402C39.4241 3.41939 39.3957 3.32621 39.3867 3.23021V3.2158C39.3834 3.1874 39.3865 3.1586 39.396 3.13162C39.4055 3.10464 39.4211 3.0802 39.4415 3.06016C39.4603 3.05098 39.481 3.04621 39.502 3.04621C39.523 3.04621 39.5437 3.05098 39.5625 3.06016C39.7027 3.11804 39.8208 3.21897 39.8997 3.34838C39.917 3.37721 39.9343 3.40603 39.9488 3.43485C39.9972 3.52356 40.0248 3.62212 40.0295 3.72308C40.0328 3.75124 40.0298 3.77978 40.0209 3.80668C40.0119 3.83358 39.9971 3.85817 39.9776 3.87872ZM10.0856 42.6279L10.7716 42.4232L11.1146 41.328C11.1146 41.328 13.1697 45.5072 13.5126 49.0726L10.0856 42.6279Z" fill="url(#paint2_linear_2654_282)"/>
<path d="M47.385 8.53357L47.1573 9.21667C46.4973 8.9198 46.2897 7.76689 46.2897 7.76689C46.2897 7.76689 45.8487 7.69195 45.4798 9.01779C45.3593 9.41553 45.1508 9.78108 44.87 10.0874C44.5891 10.3937 44.2429 10.633 43.8571 10.7875C42.9722 12.3353 39.2858 17.0535 38.254 18.2324C37.2221 19.4112 32.7258 22.5097 32.7258 22.5097L30.59 23.7606L29.7052 24.7204C29.7052 26.7091 27.4196 29.1418 27.4196 29.1418C27.4196 29.1418 28.8953 35.7767 28.9673 36.6616C29.0394 37.5464 30.5065 42.5068 30.884 45.2132C31.6882 50.9547 30.6621 62.1667 30.6621 62.1667L29.8522 61.9448C30.1519 63.4436 29.4343 67.1761 28.7829 69.9315H28.8895C28.6369 72.01 28.2518 74.0702 27.7366 76.0996C27.2283 77.7704 26.6357 79.4145 25.9611 81.0254C25.3616 82.4694 26.0073 83.9912 25.1887 85.856C24.3701 87.7209 22.5053 93.4854 22.5053 93.4854L21.312 93.2923L20.2225 100.743L20.6981 102.386L21.0843 103.201C21.0843 103.201 21.779 104.363 22.2055 104.7C22.6321 105.037 25.5518 107.006 25.5518 107.006C27.7914 108.346 29.7369 109.64 28.7223 111.099C28.1949 111.86 26.3675 111.831 24.5114 111.612C26.9469 113.229 28.8434 114.794 27.6242 116.422C26.2955 118.189 19.159 116.128 17.1558 115.906C15.1527 115.685 9.26707 113.99 8.23522 112.736C7.20337 111.482 8.97596 108.684 9.04802 107.946C9.12008 107.208 9.85506 106.989 10.1519 106.692C10.4488 106.395 10.5785 103.954 10.5785 103.954L10.7255 92.0097L9.84064 91.1248C9.84064 91.1248 10.7284 88.4731 11.3164 87.7353C11.9043 86.9974 11.9043 85.8186 10.8725 82.87C10.1214 80.6747 9.61494 78.4031 9.36218 76.0967C9.31318 75.3588 8.86932 71.0816 8.67333 66.8072C8.47733 62.5328 10.933 58.1604 10.933 58.1604C10.933 58.1604 10.884 57.9125 10.786 57.4715C10.688 57.0305 11.3769 56.6875 11.7199 55.9497C12.0629 55.2118 10.933 52.8051 10.933 52.8051C9.90538 51.8843 8.93693 50.8995 8.03346 49.8566C7.05061 48.6258 4.25482 46.248 3.73313 44.6426C3.59478 44.1958 3.83401 43.1697 3.88301 42.7748C3.93201 42.38 3.49677 42.452 3.52848 42.3108C5.30395 34.5662 10.2442 27.1991 10.492 26.5592C10.5785 26.3229 11.1636 25.6629 11.887 24.8818C11.1091 24.8135 10.3521 24.5932 9.65906 24.2333C8.17757 23.4233 10.7168 25.0432 10.4834 25.3862C10.2499 25.7292 10.616 25.5706 8.59839 24.2333C6.99008 23.1582 4.75922 22.2243 3.46796 20.3422M47.385 8.53357C47.407 8.3852 47.4548 8.24181 47.5262 8.10988L47.385 8.53357ZM47.385 8.53357C47.3698 8.61237 47.3712 8.69348 47.3891 8.77171C47.407 8.84994 47.4411 8.92356 47.4891 8.98786C47.5371 9.05216 47.5981 9.10573 47.668 9.14513C47.7379 9.18453 47.8153 9.2089 47.8952 9.21667C48.78 9.43572 48.3361 7.66601 48.3361 7.66601C48.3361 7.66601 48.7454 5.90495 46.9555 4.68575C46.9555 4.68575 46.2696 3.55591 45.5807 3.50691C45.5807 3.50691 44.3039 3.16104 43.419 3.7029C43.037 3.91661 42.6434 4.10906 42.2402 4.27935L40.2802 3.54438C40.2501 3.41599 40.1975 3.29399 40.1246 3.18409C40.0109 3.00288 39.8407 2.86411 39.6403 2.78922C39.5829 2.77021 39.5221 2.76371 39.4619 2.77017C39.4018 2.77664 39.3437 2.79591 39.2916 2.82669C39.2453 2.86058 39.2066 2.90369 39.1778 2.95329C39.149 3.0029 39.1309 3.05793 39.1244 3.11492L38.8621 3.01692C38.803 2.65164 38.6653 2.30354 38.4586 1.9966C38.1925 1.56058 37.7859 1.22817 37.3057 1.0541C37.1728 1.00703 37.0311 0.990361 36.8909 1.00533C36.7508 1.02029 36.6157 1.06651 36.4958 1.14057C35.9511 1.50085 35.9597 2.44047 36.5131 3.28209C36.7792 3.71873 37.1857 4.05205 37.666 4.22747C37.799 4.27393 37.9406 4.29027 38.0807 4.27532C38.2207 4.26037 38.3557 4.21449 38.4759 4.141C38.6095 4.04155 38.7163 3.91048 38.7867 3.75956C38.8572 3.60864 38.889 3.44259 38.8794 3.27633L39.1388 3.37432C39.1692 3.50173 39.2219 3.62274 39.2945 3.73172C39.4056 3.9152 39.5766 4.05468 39.7787 4.12659C39.8355 4.14634 39.896 4.15322 39.9559 4.14674C40.0157 4.14026 40.0733 4.12058 40.1246 4.08912C40.1718 4.05617 40.2112 4.01329 40.24 3.96351C40.2689 3.91372 40.2866 3.85822 40.2917 3.8009L41.9894 4.43788C41.9111 4.50076 41.8455 4.57805 41.7963 4.66558C41.5513 5.10656 40.5684 8.00612 40.5194 8.15311C40.4704 8.30011 35.7032 11.9375 34.9653 12.2834C33.663 12.9907 32.457 13.8626 31.3769 14.8774C30.5411 15.7623 26.5606 18.7108 26.5606 18.7108C26.2568 18.6202 25.9451 18.5584 25.6297 18.5264C26.1561 18.2696 26.5629 17.8194 26.7653 17.2697C26.9122 16.8403 26.9346 16.3781 26.8301 15.9364C26.7255 15.4948 26.4982 15.0917 26.1744 14.7737C26.4886 13.909 25.843 13.7706 25.843 13.7706C26.2407 13.2864 25.6585 12.3295 25.5144 12.2229C25.3703 12.1162 24.7419 11.4562 24.7419 11.4562C25.2607 9.796 24.4105 9.52507 23.4536 9.55966C23.177 9.56407 22.9057 9.48353 22.6764 9.32891C22.447 9.17429 22.2706 8.95302 22.171 8.69498C20.9835 4.99416 18.5278 4.37159 18.5278 4.37159L19.6259 4.59928C18.1444 2.51253 14.2937 2.29347 14.2937 2.29347C7.71929 2.5817 4.33551 7.7323 4.33551 7.7323L5.17426 6.43529C2.49087 7.90236 1.60025 9.73836 1.60025 9.73836L1.73861 8.85062C-0.538381 12.4131 1.41002 14.5344 1.41002 14.5344C1.37751 15.8884 1.49544 17.2417 1.76165 18.5696C2.19111 20.518 4.13088 21.7257 4.13088 21.7257L3.46796 20.3422M3.46796 20.3422C3.13201 19.8532 2.87522 19.3144 2.70704 18.7454L3.46796 20.3422ZM38.1617 3.67696C38.1106 3.70233 38.0548 3.71695 37.9978 3.71992C37.9408 3.7229 37.8838 3.71416 37.8303 3.69425C37.4781 3.55489 37.1814 3.30377 36.9858 2.97945C36.5996 2.403 36.5707 1.78043 36.8071 1.62767C36.858 1.60163 36.9139 1.58663 36.971 1.58365C37.0281 1.58067 37.0852 1.58977 37.1385 1.61038C37.4911 1.74768 37.7881 1.99807 37.983 2.3223C38.3693 2.91604 38.3952 3.52132 38.1617 3.67696ZM39.9776 3.87872C39.9586 3.88731 39.9379 3.89176 39.9171 3.89176C39.8962 3.89176 39.8755 3.88731 39.8565 3.87872C39.7145 3.82402 39.5955 3.72229 39.5193 3.59049C39.502 3.56167 39.4847 3.53285 39.4703 3.50402C39.4241 3.41939 39.3957 3.32621 39.3867 3.23021V3.2158C39.3834 3.1874 39.3865 3.1586 39.396 3.13162C39.4055 3.10464 39.4211 3.0802 39.4415 3.06016C39.4603 3.05098 39.481 3.04621 39.502 3.04621C39.523 3.04621 39.5437 3.05098 39.5625 3.06016C39.7027 3.11804 39.8208 3.21897 39.8998 3.34838C39.917 3.37721 39.9343 3.40603 39.9488 3.43485C39.9972 3.52356 40.0248 3.62212 40.0295 3.72308C40.0328 3.75124 40.0298 3.77978 40.0209 3.80668C40.0119 3.83358 39.9971 3.85817 39.9776 3.87872ZM10.0856 42.6279L10.7716 42.4232L11.1146 41.328C11.1146 41.328 13.1697 45.5072 13.5126 49.0726L10.0856 42.6279Z" stroke="url(#paint3_linear_2654_282)"/>
<defs>
<linearGradient id="paint0_linear_2654_282" x1="76.9296" y1="185.35" x2="-27.5894" y2="97.2865" gradientUnits="userSpaceOnUse">
<stop stop-color="#D99E3B"/>
<stop offset="1" stop-color="#FFC780"/>
</linearGradient>
<linearGradient id="paint1_linear_2654_282" x1="76.9296" y1="185.35" x2="-27.5894" y2="97.2865" gradientUnits="userSpaceOnUse">
<stop stop-color="#D99E3B"/>
<stop offset="1" stop-color="#FFC780"/>
</linearGradient>
<linearGradient id="paint2_linear_2654_282" x1="22.2994" y1="185.756" x2="-78.1593" y2="115.023" gradientUnits="userSpaceOnUse">
<stop stop-color="#D99E3B"/>
<stop offset="1" stop-color="#FFC780"/>
</linearGradient>
<linearGradient id="paint3_linear_2654_282" x1="22.2994" y1="185.756" x2="-78.1593" y2="115.023" gradientUnits="userSpaceOnUse">
<stop stop-color="#D99E3B"/>
<stop offset="1" stop-color="#FFC780"/>
</linearGradient>
</defs>
</svg>
