<svg width="321" height="158" viewBox="0 0 321 158" fill="none" xmlns="http://www.w3.org/2000/svg">
<g filter="url(#filter0_d_2718_10)">
<path d="M290.184 96.8743C288.759 98.7613 287.998 101.052 287.993 103.393L32.5634 138.673C31.9244 136.421 30.5709 134.422 28.6873 132.992C26.8047 131.563 24.5193 130.799 22.1849 130.793L12.0806 57.637C14.3279 56.9984 16.3219 55.6417 17.7468 53.7535C19.1722 51.8647 19.932 49.5716 19.9347 47.2299L275.362 11.9504C275.999 14.2037 277.352 16.205 279.236 17.6367C281.119 19.068 283.406 19.8334 285.743 19.8389L295.847 92.9952C293.602 93.6333 291.609 94.9884 290.184 96.8743Z" fill="#F2F2F2" stroke="url(#paint0_linear_2718_10)" stroke-width="3"/>
<path d="M284.52 92.5677C283.265 94.2354 282.668 96.3049 282.83 98.3801L36.1731 132.448C35.7669 130.407 34.6313 128.577 32.9715 127.311C31.3125 126.047 29.2554 125.443 27.1934 125.604L18.3081 61.2733C20.338 60.8689 22.1554 59.7284 23.4095 58.0597C24.6642 56.3904 25.2601 54.3191 25.0956 52.2426L271.752 18.1745C272.157 20.2178 273.292 22.05 274.952 23.3168C276.611 24.5831 278.67 25.1882 280.733 25.0272L289.619 89.3576C287.59 89.7617 285.774 90.9009 284.52 92.5677Z" fill="white" stroke="url(#paint1_linear_2718_10)"/>
</g>
<g filter="url(#filter1_d_2718_10)">
<path d="M294.036 115.755C292.28 117.516 291.163 119.797 290.835 122.237L20.1651 122.237C19.837 119.797 18.7203 117.516 16.964 115.755C15.2086 113.996 12.9336 112.877 10.5 112.549L10.5 34.9358C12.9355 34.6077 15.2122 33.487 16.9681 31.7252C18.7246 29.9628 19.8404 27.679 20.1664 25.2374L290.834 25.2374C291.16 27.679 292.275 29.9628 294.032 31.7252C295.788 33.487 298.065 34.6077 300.5 34.9358L300.5 112.549C298.066 112.877 295.791 113.996 294.036 115.755Z" fill="#F2F2F2" stroke="url(#paint2_linear_2718_10)" stroke-width="3"/>
<path d="M288.733 110.432C287.188 111.986 286.272 114.055 286.148 116.237L24.8518 116.237C24.7281 114.055 23.8121 111.986 22.2674 110.432C20.7234 108.878 18.6687 107.956 16.5 107.833L16.5 39.6503C18.6703 39.527 20.7263 38.6041 22.2706 37.0485C23.8155 35.4924 24.7306 33.4217 24.8522 31.2374L286.148 31.2374C286.269 33.4217 287.185 35.4924 288.729 37.0485C290.274 38.6041 292.33 39.527 294.5 39.6503L294.5 107.833C292.331 107.956 290.277 108.878 288.733 110.432Z" fill="white" stroke="url(#paint3_linear_2718_10)"/>
</g>
<defs>
<filter id="filter0_d_2718_10" x="2.0043" y="0.873499" width="313.919" height="156.876" filterUnits="userSpaceOnUse" color-interpolation-filters="sRGB">
<feFlood flood-opacity="0" result="BackgroundImageFix"/>
<feColorMatrix in="SourceAlpha" type="matrix" values="0 0 0 0 0 0 0 0 0 0 0 0 0 0 0 0 0 0 127 0" result="hardAlpha"/>
<feOffset dx="5" dy="4"/>
<feGaussianBlur stdDeviation="6.7"/>
<feComposite in2="hardAlpha" operator="out"/>
<feColorMatrix type="matrix" values="0 0 0 0 0.729167 0 0 0 0 0.500087 0 0 0 0 0.288628 0 0 0 0.12 0"/>
<feBlend mode="normal" in2="BackgroundImageFix" result="effect1_dropShadow_2718_10"/>
<feBlend mode="normal" in="SourceGraphic" in2="effect1_dropShadow_2718_10" result="shape"/>
</filter>
<filter id="filter1_d_2718_10" x="0.6" y="14.3374" width="319.8" height="126.8" filterUnits="userSpaceOnUse" color-interpolation-filters="sRGB">
<feFlood flood-opacity="0" result="BackgroundImageFix"/>
<feColorMatrix in="SourceAlpha" type="matrix" values="0 0 0 0 0 0 0 0 0 0 0 0 0 0 0 0 0 0 127 0" result="hardAlpha"/>
<feOffset dx="5" dy="4"/>
<feGaussianBlur stdDeviation="6.7"/>
<feComposite in2="hardAlpha" operator="out"/>
<feColorMatrix type="matrix" values="0 0 0 0 0.729167 0 0 0 0 0.500087 0 0 0 0 0.288628 0 0 0 0.12 0"/>
<feBlend mode="normal" in2="BackgroundImageFix" result="effect1_dropShadow_2718_10"/>
<feBlend mode="normal" in="SourceGraphic" in2="effect1_dropShadow_2718_10" result="shape"/>
</filter>
<linearGradient id="paint0_linear_2718_10" x1="155.222" y1="180.1" x2="98.8769" y2="17.8449" gradientUnits="userSpaceOnUse">
<stop stop-color="#D99E3B"/>
<stop offset="1" stop-color="#FFC780"/>
</linearGradient>
<linearGradient id="paint1_linear_2718_10" x1="153.85" y1="165.595" x2="107.841" y2="24.6775" gradientUnits="userSpaceOnUse">
<stop stop-color="#D99E3B"/>
<stop offset="1" stop-color="#FFC780"/>
</linearGradient>
<linearGradient id="paint2_linear_2718_10" x1="141.766" y1="182.828" x2="106.496" y2="6.10272" gradientUnits="userSpaceOnUse">
<stop stop-color="#D99E3B"/>
<stop offset="1" stop-color="#FFC780"/>
</linearGradient>
<linearGradient id="paint3_linear_2718_10" x1="142.422" y1="167.556" x2="114.833" y2="14.491" gradientUnits="userSpaceOnUse">
<stop stop-color="#D99E3B"/>
<stop offset="1" stop-color="#FFC780"/>
</linearGradient>
</defs>
</svg>
