<svg width="114" height="117" viewBox="0 0 114 117" fill="none" xmlns="http://www.w3.org/2000/svg">
<path d="M107.03 24.255L108.066 22.3855C108.196 22.1409 108.285 21.8769 108.33 21.6037L111.321 20.3715L113.411 13.1484L109.061 7.0045L101.549 6.57111L96.5348 12.1796L97.0702 15.3663C96.8659 15.5511 96.6911 15.766 96.5518 16.0036L95.5151 17.8732V17.9412C93.0655 17.539 90.5614 17.6111 88.139 18.1536C87.6288 16.5058 86.9 14.9339 85.972 13.4798C86.3626 13.2512 86.6852 12.9227 86.9068 12.5281L87.9435 10.6585C88.1089 10.3595 88.2136 10.0308 88.2519 9.69129C88.2901 9.35174 88.261 9.00794 88.1663 8.67964C88.0716 8.35133 87.9131 8.04491 87.6999 7.77789C87.4867 7.51086 87.223 7.28847 86.9238 7.12343L74.602 0.325194C73.9968 -0.00909699 73.2836 -0.0894523 72.6192 0.101753C71.9547 0.292958 71.3934 0.740095 71.0584 1.34494L70.0217 3.21447C69.8045 3.60964 69.696 4.05536 69.7073 4.50615C66.1906 4.46785 62.7287 5.37912 59.6866 7.14392C56.6446 8.90873 54.1351 11.4617 52.4227 14.5335C49.9246 19.0671 49.3269 24.4064 50.7607 29.3801C52.1945 34.3538 55.5427 38.5556 60.0707 41.0637C64.2347 43.3774 69.1031 44.0819 73.7522 43.0437C75.2255 47.8346 78.4922 51.8715 82.8704 54.3117C87.4039 56.8099 92.7432 57.4076 97.7169 55.9738C102.691 54.54 106.892 51.1918 109.4 46.6637C111.347 43.143 112.16 39.1073 111.728 35.1075C111.296 31.1076 109.641 27.3385 106.987 24.3145L107.03 24.255ZM61.9913 37.5116C58.407 35.5223 55.7591 32.1915 54.6294 28.251C53.4997 24.3105 53.9805 20.0827 55.9663 16.4965C56.9505 14.721 58.2748 13.1567 59.8635 11.8929C61.4523 10.6292 63.2744 9.69077 65.2259 9.13129C67.1774 8.57181 69.22 8.40221 71.237 8.63218C73.254 8.86215 75.206 9.48717 76.9814 10.4716C80.4851 12.4101 83.0946 15.6386 84.2555 19.4708C80.4383 21.1985 77.2817 24.1137 75.2563 27.7816C73.3433 31.2261 72.5224 35.1706 72.9024 39.0922C69.1977 39.9296 65.3142 39.3665 61.9998 37.5116H61.9913ZM83.0148 31.4867C81.5943 34.056 79.4645 36.1624 76.8794 37.5541C76.8121 34.8155 77.4749 32.1083 78.7999 29.7106C80.2233 27.1413 82.3523 25.033 84.9353 23.6347C85.0038 26.3761 84.3409 29.0863 83.0148 31.4867ZM105.848 44.6922C104.865 46.4685 103.541 48.0336 101.953 49.2982C100.364 50.5628 98.5423 51.5021 96.5908 52.0624C94.6392 52.6227 92.5964 52.793 90.5791 52.5636C88.5617 52.3343 86.6093 51.7098 84.8334 50.7257C81.3389 48.7924 78.7311 45.5783 77.5592 41.7605C81.3778 40.0348 84.5349 37.1191 86.5584 33.4497C88.4911 30.0116 89.33 26.0661 88.9633 22.1391C92.6547 21.3166 96.5196 21.8791 99.8235 23.7197C103.399 25.7057 106.042 29.0283 107.173 32.9594C108.304 36.8904 107.831 41.1095 105.857 44.6922H105.848Z" fill="url(#paint0_linear_2981_34)"/>
<path d="M69.478 49.4595C65.1667 49.4535 60.9272 48.3542 57.1562 46.2644C54.2256 44.6523 51.6441 42.4748 49.5611 39.8579C47.478 37.241 45.935 34.2368 45.0213 31.0193C43.4203 25.5503 43.7198 19.7 45.8711 14.4231H4.46985C3.28438 14.4231 2.14747 14.8941 1.30921 15.7323C0.470955 16.5706 0 17.7075 0 18.8929V112.53C0.00224605 113.715 0.473879 114.851 1.31165 115.688C2.14942 116.526 3.28507 116.998 4.46985 117H70.0984C71.2831 116.998 72.4188 116.526 73.2566 115.688C74.0943 114.851 74.566 113.715 74.5682 112.53V55.459C72.7454 53.695 71.1985 51.6669 69.9794 49.4426L69.478 49.4595ZM9.08415 27.1698C9.08415 26.843 9.21396 26.5296 9.44504 26.2985C9.67612 26.0674 9.98955 25.9376 10.3163 25.9376H32.7421C33.0688 25.9376 33.3822 26.0674 33.6133 26.2985C33.8444 26.5296 33.9742 26.843 33.9742 27.1698V49.587C33.9753 49.7495 33.9443 49.9107 33.8829 50.0612C33.8214 50.2116 33.7308 50.3485 33.6163 50.4638C33.5018 50.5791 33.3656 50.6706 33.2155 50.7331C33.0655 50.7955 32.9046 50.8277 32.7421 50.8277H10.3163C10.1538 50.8277 9.99285 50.7955 9.8428 50.7331C9.69275 50.6706 9.55656 50.5791 9.44203 50.4638C9.3275 50.3485 9.23691 50.2116 9.17549 50.0612C9.11407 49.9107 9.08303 49.7495 9.08415 49.587V27.1698ZM22.6806 98.5514L17.9134 104.245C17.3799 104.879 16.6168 105.275 15.7915 105.347C14.9662 105.418 14.1463 105.159 13.5115 104.627C13.4004 104.526 13.2954 104.418 13.1971 104.304L10.4523 102.001C9.81727 101.469 9.41947 100.707 9.34618 99.8813C9.27289 99.056 9.53013 98.2353 10.0614 97.5995C10.5949 96.9658 11.3579 96.5696 12.1832 96.4979C13.0085 96.4262 13.8285 96.6849 14.4633 97.2172L15.1601 97.7951L17.8879 94.5403C18.4216 93.9048 19.1856 93.5068 20.0123 93.4335C20.839 93.3602 21.661 93.6177 22.2982 94.1495C22.6182 94.4141 22.8824 94.7398 23.0752 95.1075C23.268 95.4753 23.3856 95.8777 23.4212 96.2915C23.4568 96.7052 23.4096 97.1219 23.2825 97.5172C23.1553 97.9125 22.9508 98.2784 22.6806 98.5938V98.5514ZM22.6806 82.9324L17.9134 88.6174C17.3811 89.2524 16.6186 89.6502 15.7933 89.7235C14.968 89.7968 14.1473 89.5395 13.5115 89.0083C13.4011 88.9063 13.2991 88.7958 13.1971 88.6853L10.4523 86.3825C9.81673 85.8487 9.41873 85.0848 9.34546 84.2581C9.27218 83.4314 9.52965 82.6094 10.0614 81.9722C10.5949 81.3384 11.3579 80.9421 12.1832 80.8704C13.0085 80.7987 13.8285 81.0574 14.4633 81.5897L15.1601 82.1761L17.8879 78.9129C18.4228 78.2786 19.1874 77.8822 20.014 77.8105C20.8407 77.7388 21.6621 77.9977 22.2982 78.5305C22.6182 78.7951 22.8824 79.1208 23.0752 79.4886C23.268 79.8563 23.3856 80.2588 23.4212 80.6725C23.4568 81.0862 23.4096 81.5029 23.2825 81.8982C23.1553 82.2935 22.9508 82.6595 22.6806 82.9748V82.9324ZM22.6806 67.3049L17.9134 72.9899C17.3811 73.6249 16.6186 74.0227 15.7933 74.096C14.968 74.1693 14.1473 73.9121 13.5115 73.3808C13.4011 73.2788 13.2991 73.1684 13.1971 73.058L10.4523 70.755C9.81727 70.2228 9.41947 69.4603 9.34618 68.635C9.27289 67.8097 9.53013 66.989 10.0614 66.3531C10.5937 65.7181 11.3561 65.3203 12.1815 65.247C13.0068 65.1737 13.8275 65.431 14.4633 65.9623L15.1601 66.5486L17.8879 63.294C18.1515 62.9783 18.4748 62.7177 18.8393 62.5272C19.2038 62.3367 19.6023 62.2199 20.0119 62.1836C20.4216 62.1473 20.8345 62.1921 21.2268 62.3156C21.6191 62.4391 21.9832 62.6387 22.2982 62.903C22.6182 63.1676 22.8824 63.4934 23.0752 63.8611C23.268 64.2289 23.3856 64.6314 23.4212 65.0451C23.4568 65.4588 23.4096 65.8754 23.2825 66.2707C23.1553 66.666 22.9508 67.032 22.6806 67.3474V67.3049ZM61.66 105.358H30.3287C29.4993 105.358 28.7038 105.029 28.1174 104.442C27.5309 103.856 27.2015 103.06 27.2015 102.231C27.2015 101.821 27.2824 101.414 27.4397 101.035C27.597 100.657 27.8274 100.312 28.1179 100.023C28.4084 99.7329 28.7532 99.5033 29.1326 99.3471C29.5119 99.1909 29.9184 99.111 30.3287 99.1122H61.66C62.0703 99.111 62.4768 99.1909 62.8561 99.3471C63.2355 99.5033 63.5803 99.7329 63.8708 100.023C64.1613 100.312 64.3918 100.657 64.5491 101.035C64.7063 101.414 64.7872 101.821 64.7872 102.231C64.7928 102.643 64.7169 103.052 64.5639 103.435C64.4108 103.817 64.1837 104.166 63.8954 104.461C63.6072 104.755 63.2636 104.99 62.8843 105.151C62.505 105.312 62.0977 105.397 61.6856 105.401L61.66 105.358ZM61.66 89.7307H30.3287C29.9184 89.7318 29.5119 89.6519 29.1326 89.4957C28.7532 89.3395 28.4084 89.1099 28.1179 88.8202C27.8274 88.5305 27.597 88.1863 27.4397 87.8073C27.2824 87.4284 27.2015 87.0222 27.2015 86.6119C27.2015 85.7825 27.5309 84.9871 28.1174 84.4006C28.7038 83.8142 29.4993 83.4847 30.3287 83.4847H61.66C62.4894 83.4847 63.2849 83.8142 63.8713 84.4006C64.4578 84.9871 64.7872 85.7825 64.7872 86.6119C64.7928 87.0236 64.7169 87.4323 64.5637 87.8145C64.4106 88.1967 64.1833 88.5448 63.8949 88.8387C63.6066 89.1325 63.2629 89.3664 62.8837 89.5268C62.5045 89.6872 62.0973 89.7709 61.6856 89.7731L61.66 89.7307ZM61.66 74.1117H30.3287C29.4993 74.1117 28.7038 73.7822 28.1174 73.1957C27.5309 72.6093 27.2015 71.8138 27.2015 70.9845C27.2149 70.1639 27.5502 69.3815 28.1352 68.8061C28.7202 68.2306 29.508 67.9081 30.3287 67.9083H61.66C62.4894 67.9083 63.2849 68.2378 63.8713 68.8242C64.4578 69.4107 64.7872 70.2061 64.7872 71.0355C64.785 71.859 64.4581 72.6483 63.8773 73.2322C63.2966 73.8161 62.5091 74.1474 61.6856 74.1541L61.66 74.1117Z" fill="url(#paint1_linear_2981_34)"/>
<defs>
<linearGradient id="paint0_linear_2981_34" x1="78.7311" y1="90.266" x2="35.9043" y2="8.40658" gradientUnits="userSpaceOnUse">
<stop stop-color="#D99E3B"/>
<stop offset="1" stop-color="#FFC780"/>
</linearGradient>
<linearGradient id="paint1_linear_2981_34" x1="33.7887" y1="177.614" x2="-58.2713" y2="63.165" gradientUnits="userSpaceOnUse">
<stop stop-color="#D99E3B"/>
<stop offset="1" stop-color="#FFC780"/>
</linearGradient>
</defs>
</svg>
